<?xml version="1.0" encoding="UTF-8" standalone="no"?><!-- Generator: Gravit.io --><svg xmlns="http://www.w3.org/2000/svg" xmlns:xlink="http://www.w3.org/1999/xlink" style="isolation:isolate" viewBox="0 0 1280 800" width="1280pt" height="800pt"><defs><clipPath id="_clipPath_YdQfebGdIL3ZD6WzFOWZeGxKLDE1czsu"><rect width="1280" height="800"/></clipPath></defs><g clip-path="url(#_clipPath_YdQfebGdIL3ZD6WzFOWZeGxKLDE1czsu)"><clipPath id="_clipPath_CHB2Hl2zA6Qz7hEpN8I8icf7U4lrAzC1"><rect x="0" y="0" width="1280" height="800" transform="matrix(1,0,0,1,0,0)" fill="rgb(255,255,255)"/></clipPath><g clip-path="url(#_clipPath_CHB2Hl2zA6Qz7hEpN8I8icf7U4lrAzC1)"><g><rect x="0" y="0" width="1280" height="800" transform="matrix(1,0,0,1,0,0)" fill="rgb(249,245,245)"/><mask id="_mask_w7SqJGa0tiNSJzWxx3ZpfIq79AW6S0GW" x="-200%" y="-200%" width="400%" height="400%"><rect x="-200%" y="-200%" width="400%" height="400%" style="fill:white;"/><path d=" M 305 95 Q 63.595 89.686 140 243 C 222.901 409.349 -22.578 603.216 36 631 C 94.578 658.784 788.158 831.99 858 778 C 927.842 724.01 1206.181 744.636 1226 515 C 1245.819 285.364 1196.508 333.422 1138 214 C 1124.512 186.47 1113.297 163.716 1104.354 145.739 Q 1078.976 94.724 1078 95 Q 489.437 13.791 398 55 Q 306.563 96.209 305 95 Z " fill="black" stroke="none"/></mask><path d=" M 305 95 Q 63.595 89.686 140 243 C 222.901 409.349 -22.578 603.216 36 631 C 94.578 658.784 788.158 831.99 858 778 C 927.842 724.01 1206.181 744.636 1226 515 C 1245.819 285.364 1196.508 333.422 1138 214 C 1124.512 186.47 1113.297 163.716 1104.354 145.739 Q 1078.976 94.724 1078 95 Q 489.437 13.791 398 55 Q 306.563 96.209 305 95 Z " fill="rgb(74,134,232)"/><path d=" M 305 95 Q 63.595 89.686 140 243 C 222.901 409.349 -22.578 603.216 36 631 C 94.578 658.784 788.158 831.99 858 778 C 927.842 724.01 1206.181 744.636 1226 515 C 1245.819 285.364 1196.508 333.422 1138 214 C 1124.512 186.47 1113.297 163.716 1104.354 145.739 Q 1078.976 94.724 1078 95 Q 489.437 13.791 398 55 Q 306.563 96.209 305 95 Z " fill="rgb(74,134,232)" mask="url(#_mask_w7SqJGa0tiNSJzWxx3ZpfIq79AW6S0GW)" vector-effect="non-scaling-stroke" stroke-width="2" stroke="rgb(74,134,232)" stroke-linejoin="miter" stroke-linecap="square" stroke-miterlimit="3"/></g></g></g></svg>