<?xml version="1.0" encoding="UTF-8" standalone="no"?><!-- Generator: Gravit.io --><svg xmlns="http://www.w3.org/2000/svg" xmlns:xlink="http://www.w3.org/1999/xlink" style="isolation:isolate" viewBox="0 0 560 315" width="560pt" height="315pt"><clipPath id="_clipPath_ynjUA06jDi8cWVFdfoALGpfRH4JnB4ys"><rect x="137.761" y="0" width="284.478" height="315" transform="matrix(1,0,0,1,0,0)" fill="rgb(255,255,255)"/></clipPath><g clip-path="url(#_clipPath_ynjUA06jDi8cWVFdfoALGpfRH4JnB4ys)"><g><g><rect x="137.761" y="118.623" width="276.407" height="158.043" transform="matrix(1,0,0,1,0,0)" fill="rgb(255,255,255)"/><rect x="145.495" y="111.562" width="276.407" height="158.043" transform="matrix(1,0,0,1,0,0)" fill="none" vector-effect="non-scaling-stroke" stroke-width="0.672" stroke="rgb(63,61,86)" stroke-opacity="100" stroke-linejoin="miter" stroke-linecap="butt" stroke-miterlimit="2"/><clipPath id="_clipPath_0nWYJse6iOrYLObGkZQInwgVAxkWHto5"><path d=" M -431.194 -630 L 706.716 -630 L 706.716 630 L -431.194 630 L -431.194 -630 Z  M 145.495 119.997 L 421.902 119.997 L 145.495 119.997 Z " fill-rule="evenodd" fill="rgb(255,255,255)"/></clipPath><g clip-path="url(#_clipPath_0nWYJse6iOrYLObGkZQInwgVAxkWHto5)"><mask id="_mask_bT2InS1kAfX3IaBPtwh2CwmVQ6WIDdmo" x="-200%" y="-200%" width="400%" height="400%"><rect x="-200%" y="-200%" width="400%" height="400%" style="fill:white;"/><line x1="145.495" y1="119.997" x2="421.902" y2="119.997" fill="black" stroke="none"/></mask><line x1="145.495" y1="119.997" x2="421.902" y2="119.997" mask="url(#_mask_bT2InS1kAfX3IaBPtwh2CwmVQ6WIDdmo)" vector-effect="non-scaling-stroke" stroke-width="1.345" stroke="rgb(63,61,86)" stroke-opacity="100" stroke-linejoin="miter" stroke-linecap="butt" stroke-miterlimit="10"/></g><circle vector-effect="non-scaling-stroke" cx="151.88421842225213" cy="115.93294032827303" r="2.353832427160114" fill="rgb(0,191,166)"/><circle vector-effect="non-scaling-stroke" cx="158.94571570373247" cy="115.93294032827303" r="2.353832427160114" fill="rgb(0,191,166)"/><circle vector-effect="non-scaling-stroke" cx="166.00721298521282" cy="115.93294032827303" r="2.353832427160114" fill="rgb(0,191,166)"/><path d=" M 314.657 220.955 C 327.219 208.393 330.977 189.5 324.178 173.087 C 317.38 156.674 301.364 145.972 283.598 145.972 L 283.598 189.896 L 314.657 220.955 Z " fill="rgb(136,129,129)"/><path d=" M 283.598 145.972 C 263.515 145.975 245.99 159.597 241.034 179.059 C 236.077 198.522 244.95 218.867 262.586 228.476 L 283.598 189.896 L 283.598 145.972 Z " fill="rgb(0,191,166)"/><rect x="189.209" y="227.278" width="8.411" height="8.411" transform="matrix(1,0,0,1,0,0)" fill="rgb(0,191,166)"/><rect x="201.358" y="227.278" width="8.411" height="8.411" transform="matrix(1,0,0,1,0,0)" fill="rgb(63,61,86)"/><rect x="213.508" y="227.278" width="8.411" height="8.411" transform="matrix(1,0,0,1,0,0)" fill="rgb(87,90,137)"/><rect x="334.531" y="229.147" width="34.578" height="1.402" transform="matrix(1,0,0,1,0,0)" fill="rgb(63,61,86)"/><rect x="334.531" y="233.352" width="34.578" height="1.402" transform="matrix(1,0,0,1,0,0)" fill="rgb(63,61,86)"/><rect x="334.531" y="237.558" width="34.578" height="1.402" transform="matrix(1,0,0,1,0,0)" fill="rgb(63,61,86)"/><path d=" M 349.723 299.943 L 350.279 304.574 L 353.428 306.056 L 356.948 304.944 L 359.356 306.056 L 360.097 301.795 L 355.836 296.979 L 349.723 299.943 L 349.723 299.943 Z " fill="rgb(255,185,185)"/><path d=" M 351.947 303.462 C 351.947 303.462 349.075 300.114 349.028 301.788 C 349.028 301.788 342.685 309.205 342.685 309.205 C 342.685 309.205 332.867 312.169 340.462 314.021 C 340.462 314.021 364.728 310.501 365.283 309.39 C 365.283 309.39 360.653 299.758 360.097 300.498 C 359.541 301.239 356.762 303.833 351.947 303.462 Z " fill="rgb(47,46,65)"/><path d=" M 344.907 248.447 C 344.907 248.447 343.796 257.153 344.907 258.45 C 344.907 258.45 345.463 262.34 344.907 262.711 C 344.907 262.711 345.649 264.563 346.574 265.304 C 346.574 265.304 348.798 269.379 348.798 269.379 C 348.798 269.379 353.799 282.531 353.799 283.827 C 353.799 283.827 356.021 287.903 355.836 288.829 C 355.836 288.829 357.133 292.719 356.948 293.275 C 356.948 293.275 359.356 298.831 358.615 299.573 C 358.615 299.573 347.686 302.907 348.242 301.239 C 348.242 301.239 349.168 297.535 348.798 297.535 C 348.798 297.535 346.76 295.497 347.13 294.756 C 347.13 294.756 336.016 274.566 336.016 274.566 L 344.907 248.447 Z " fill="rgb(47,46,65)"/><g style="opacity:0.1;"><g opacity="0.1"><path d=" M 351.947 303.462 C 351.947 303.462 349.075 300.114 349.028 301.788 C 349.028 301.788 342.685 309.205 342.685 309.205 C 342.685 309.205 332.867 312.169 340.462 314.021 C 340.462 314.021 364.728 310.501 365.283 309.39 C 365.283 309.39 360.653 299.758 360.097 300.498 C 359.541 301.239 356.762 303.833 351.947 303.462 Z " fill="rgb(0,0,0)"/></g></g><g style="opacity:0.1;"><g opacity="0.1"><path d=" M 344.907 248.447 C 344.907 248.447 343.796 257.153 344.907 258.45 C 344.907 258.45 345.463 262.34 344.907 262.711 C 344.907 262.711 345.649 264.563 346.574 265.304 C 346.574 265.304 348.798 269.379 348.798 269.379 C 348.798 269.379 353.799 282.531 353.799 283.827 C 353.799 283.827 356.021 287.903 355.836 288.829 C 355.836 288.829 357.133 292.719 356.948 293.275 C 356.948 293.275 359.356 298.831 358.615 299.573 C 358.615 299.573 347.686 302.907 348.242 301.239 C 348.242 301.239 349.168 297.535 348.798 297.535 C 348.798 297.535 346.76 295.497 347.13 294.756 C 347.13 294.756 336.016 274.566 336.016 274.566 L 344.907 248.447 Z " fill="rgb(0,0,0)"/></g></g><path d=" M 326.013 297.644 L 323.976 302.83 L 324.902 310.054 L 330.829 309.684 L 334.164 306.72 L 334.164 300.422 L 326.013 297.644 L 326.013 297.644 Z " fill="rgb(255,185,185)"/><path d=" M 327.125 303.941 C 327.125 303.941 325.087 297.273 323.976 299.125 C 323.272 300.315 322.653 301.553 322.123 302.83 C 322.123 302.83 313.047 308.757 310.639 308.757 C 310.639 308.757 306.008 311.721 309.157 312.833 C 309.157 312.833 336.387 315.426 336.757 312.833 C 336.757 312.833 336.387 301.904 335.275 302.83 C 334.164 303.756 328.421 305.794 327.125 303.941 Z " fill="rgb(47,46,65)"/><path d=" M 322.494 221.882 C 322.494 221.882 318.604 228.55 318.234 229.291 C 318.234 229.291 315.825 234.848 319.715 236.701 C 319.715 236.701 326.94 223.178 326.94 223.178 L 322.494 221.882 Z " fill="rgb(255,185,185)"/><path d=" M 326.569 211.138 C 326.569 211.138 320.642 222.622 321.753 222.993 C 321.753 222.993 327.31 225.586 327.31 225.586 L 329.348 213.916 L 326.569 211.138 Z " fill="rgb(87,90,136)"/><g style="opacity:0.1;"><g opacity="0.1"><path d=" M 326.569 211.138 C 326.569 211.138 320.642 222.622 321.753 222.993 C 321.753 222.993 327.31 225.586 327.31 225.586 L 329.348 213.916 L 326.569 211.138 Z " fill="rgb(0,0,0)"/></g></g><path d=" M 326.94 220.77 C 326.94 220.77 325.643 230.403 326.199 232.44 C 326.199 232.44 325.828 265.042 326.569 266.709 C 326.569 266.709 327.866 279.12 327.866 280.416 C 327.866 280.416 326.384 292.272 326.013 293.197 C 326.013 293.197 324.531 297.273 325.087 298.755 C 325.643 300.237 333.238 303.941 334.349 302.645 C 335.46 301.348 334.534 297.273 335.46 297.088 C 336.387 296.902 337.498 288.196 337.498 288.196 L 343.611 254.113 C 343.611 254.113 355.096 225.586 352.502 222.808 C 349.909 220.029 326.94 220.77 326.94 220.77 Z " fill="rgb(47,46,65)"/><circle vector-effect="non-scaling-stroke" cx="333.79324065060325" cy="145.93492207103336" r="9.076569508341322" fill="rgb(255,185,185)"/><path d=" M 330.459 153.344 C 330.459 153.344 333.423 161.124 333.052 162.791 C 333.052 162.791 341.758 159.828 341.758 159.828 C 341.758 159.828 341.203 150.751 341.758 148.343 C 342.314 145.935 330.459 153.344 330.459 153.344 Z " fill="rgb(255,185,185)"/><path d=" M 355.347 204.027 C 355.306 205.581 355.281 206.507 355.281 206.507 C 355.281 206.507 355.836 215.028 354.91 217.807 C 353.984 220.585 353.984 222.622 353.428 224.475 C 353.265 225.014 351.048 225.303 347.934 225.431 C 345.078 225.547 341.467 225.531 338.002 225.451 C 332.263 225.318 326.914 225.01 326.013 224.846 C 323.976 224.475 326.384 221.326 325.643 219.659 C 324.902 217.992 326.94 196.69 326.94 196.69 C 326.94 196.69 326.754 184.649 327.68 180.018 C 328.607 175.388 332.126 167.978 332.867 167.052 C 333.608 166.126 333.052 165.57 331.385 164.458 C 329.718 163.347 331.385 159.087 331.385 159.087 C 334.534 156.493 342.499 156.123 342.499 156.123 C 342.499 156.123 354.725 168.719 355.466 171.312 C 355.914 172.879 355.753 185.398 355.557 195.063 C 355.481 198.7 355.401 201.933 355.347 204.027 Z " fill="rgb(87,90,136)"/><path d=" M 339.721 227.068 C 339.721 227.068 332.682 241.517 338.239 242.443 C 338.239 242.443 346.574 229.291 346.574 229.291 L 339.721 227.068 Z " fill="rgb(255,185,185)"/><path d=" M 325.306 141.334 C 324.985 139.778 326.175 138.322 327.428 137.344 C 330.157 135.228 333.514 134.083 336.968 134.091 C 339.397 134.104 341.904 134.747 343.74 136.338 C 345.882 138.193 346.858 141.168 346.679 143.996 C 346.499 146.824 345.269 149.506 343.61 151.803 C 342.814 152.905 341.535 154.046 340.263 153.566 C 339.765 153.333 339.338 152.972 339.025 152.52 C 338.209 151.508 337.498 150.415 336.903 149.259 C 336.448 148.374 336.053 147.442 335.408 146.684 C 334.763 145.927 333.793 145.357 332.807 145.493 C 331.993 145.605 331.194 146.179 330.417 145.909 C 329.554 145.61 329.345 144.505 329.276 143.593 C 329.201 142.593 329.254 141.436 328.977 140.491 C 328.673 140.653 325.456 142.08 325.306 141.334 Z " fill="rgb(47,46,65)"/><g style="opacity:0.1;"><g opacity="0.1"><path d=" M 355.347 204.027 C 353.273 211.509 348.514 224.117 348.242 224.66 C 348.173 224.799 348.066 225.071 347.934 225.431 C 345.078 225.547 341.468 225.531 338.002 225.451 C 338.539 224.047 339.165 222.691 339.165 222.252 C 339.165 221.326 343.611 197.431 343.611 197.431 C 343.611 197.431 340.091 186.872 336.942 177.981 C 333.793 169.09 346.297 170.849 346.297 170.849 C 352.965 169.182 354.169 172.053 354.169 172.053 C 354.169 172.053 354.756 187.669 355.557 195.063 C 355.762 196.958 355.981 198.312 356.207 198.727 C 356.503 199.27 356.103 201.311 355.347 204.027 Z " fill="rgb(0,0,0)"/></g></g><path d=" M 343.611 164.829 C 343.611 164.829 335.09 168.348 338.239 177.24 C 341.388 186.131 344.907 196.69 344.907 196.69 C 344.907 196.69 340.462 220.585 340.462 221.511 C 340.462 222.437 337.683 227.439 338.795 228.365 C 339.906 229.291 347.315 231.144 347.501 230.217 C 348.068 228.084 348.748 225.981 349.538 223.919 C 349.909 223.178 358.615 200.024 357.504 197.986 C 356.392 195.949 355.466 171.312 355.466 171.312 C 355.466 171.312 350.279 163.162 343.611 164.829 Z " fill="rgb(168,7,7)"/><path d=" M 324.745 234.741 L 292.005 204.019 L 272.674 243.944 C 279.118 247.461 286.345 249.299 293.686 249.288 C 305.815 249.288 316.796 242.69 324.745 234.741 Z " fill="rgb(87,90,137)"/><g style="opacity:0.1;"><g opacity="0.1"><path d=" M 324.745 234.741 L 292.005 204.019 L 272.674 243.944 C 279.118 247.461 286.345 249.299 293.686 249.288 C 305.815 249.288 316.796 242.69 324.745 234.741 Z " fill="rgb(0,0,0)"/></g></g><path d=" M 322.055 237.095 L 290.996 206.036 L 269.984 244.616 C 287.09 253.923 308.281 250.863 322.055 237.095 Z " fill="rgb(87,90,137)"/><clipPath id="_clipPath_J7c9oxl65qZxXe0nczj7D9p1PEXgGFaB"><path d=" M -431.194 -630 L 706.716 -630 L 706.716 630 L -431.194 630 L -431.194 -630 Z  M 271.257 314.327 L 404.417 314.327 L 271.257 314.327 Z " fill-rule="evenodd" fill="rgb(255,255,255)"/></clipPath><g clip-path="url(#_clipPath_J7c9oxl65qZxXe0nczj7D9p1PEXgGFaB)"><mask id="_mask_vK0C82zu3fegEFrBUYKMv3ReaSsLKaMT" x="-200%" y="-200%" width="400%" height="400%"><rect x="-200%" y="-200%" width="400%" height="400%" style="fill:white;"/><line x1="271.257" y1="314.327" x2="404.417" y2="314.327" fill="black" stroke="none"/></mask><line x1="271.257" y1="314.327" x2="404.417" y2="314.327" mask="url(#_mask_vK0C82zu3fegEFrBUYKMv3ReaSsLKaMT)" vector-effect="non-scaling-stroke" stroke-width="1.345" stroke="rgb(63,61,86)" stroke-opacity="100" stroke-linejoin="miter" stroke-linecap="butt" stroke-miterlimit="10"/></g><clipPath id="_clipPath_udE913Oa9CAJ0RGf0EIpBKg2OtCjIVyG"><path d=" M -431.194 -630 L 706.716 -630 L 706.716 630 L -431.194 630 L -431.194 -630 Z  M 385.95 314.65 L 385.95 275.612 L 385.95 314.65 Z " fill-rule="evenodd" fill="rgb(255,255,255)"/></clipPath><g clip-path="url(#_clipPath_udE913Oa9CAJ0RGf0EIpBKg2OtCjIVyG)"><mask id="_mask_pZGVI9Y8ZUkkfSnxPNLsyTwJ3uqzX1D4" x="-200%" y="-200%" width="400%" height="400%"><rect x="-200%" y="-200%" width="400%" height="400%" style="fill:white;"/><line x1="385.95" y1="314.65" x2="385.95" y2="275.612" fill="black" stroke="none"/></mask><line x1="385.95" y1="314.65" x2="385.95" y2="275.612" mask="url(#_mask_pZGVI9Y8ZUkkfSnxPNLsyTwJ3uqzX1D4)" vector-effect="non-scaling-stroke" stroke-width="1.345" stroke="rgb(63,61,86)" stroke-opacity="100" stroke-linejoin="miter" stroke-linecap="butt" stroke-miterlimit="10"/></g><circle vector-effect="non-scaling-stroke" cx="385.9500379418705" cy="275.6124498173501" r="5.520500355920433" fill="rgb(63,61,86)"/><path d=" M 385.95 299.672 C 385.95 299.672 385.162 282.71 368.994 284.682" fill="rgb(63,61,86)"/></g></g></g></svg>