<?xml version="1.0" encoding="UTF-8" standalone="no"?><!-- Generator: Gravit.io --><svg xmlns="http://www.w3.org/2000/svg" xmlns:xlink="http://www.w3.org/1999/xlink" style="isolation:isolate" viewBox="0 0 499 500" width="499pt" height="500pt"><defs><clipPath id="_clipPath_4k4k3A0QfoZRS8yXBX85HwP5mhrJqcZu"><rect width="499" height="500"/></clipPath></defs><g clip-path="url(#_clipPath_4k4k3A0QfoZRS8yXBX85HwP5mhrJqcZu)"><g opacity="0.72" style="mix-blend-mode:divide;"><path d=" M 31.524 55.538 Q 23.147 21.508 46.399 19.172 C 55.158 18.292 67.284 20.785 82.775 26.652 C 89.419 29.168 96.032 31.674 102.559 34.244 C 159.264 56.563 209.565 83.628 218.65 162.961 C 228.781 251.426 289.568 233.372 291.951 241.496 C 294.335 249.621 201.066 504.213 170.379 426.552 C 132.406 330.45 41.828 443.298 19.009 426.552 C -16.646 400.385 6.495 106.993 19.009 81.717 Q 31.524 56.441 31.524 55.538 Z " fill="rgb(74,134,232)" style=":undefined;" vector-effect="non-scaling-stroke" stroke-width="1" stroke="rgb(232,232,232)" stroke-linejoin="miter" stroke-linecap="square" stroke-miterlimit="3"/></g><g><g style="mix-blend-mode:normal;" opacity="0.1"><path d="M 121.662 152.51 L 149.528 152.51 C 151.074 152.51 152.33 153.765 152.33 155.312 L 152.33 159.208 C 152.33 160.755 151.074 162.01 149.528 162.01 L 121.662 162.01 C 120.116 162.01 118.86 160.755 118.86 159.208 L 118.86 155.312 C 118.86 153.765 120.116 152.51 121.662 152.51 Z" style="stroke:none;fill:#00BFA6;stroke-miterlimit:10;"/></g><g style="mix-blend-mode:normal;" opacity="0.1"><path d="M 156.682 162.01 L 184.548 162.01 C 186.094 162.01 187.35 163.265 187.35 164.812 L 187.35 168.708 C 187.35 170.255 186.094 171.51 184.548 171.51 L 156.682 171.51 C 155.136 171.51 153.88 170.255 153.88 168.708 L 153.88 164.812 C 153.88 163.265 155.136 162.01 156.682 162.01 Z" style="stroke:none;fill:#00BFA6;stroke-miterlimit:10;"/></g><g style="mix-blend-mode:normal;" opacity="0.1"><path d="M 191.712 171.51 L 219.578 171.51 C 221.124 171.51 222.38 172.765 222.38 174.312 L 222.38 178.208 C 222.38 179.755 221.124 181.01 219.578 181.01 L 191.712 181.01 C 190.166 181.01 188.91 179.755 188.91 178.208 L 188.91 174.312 C 188.91 172.765 190.166 171.51 191.712 171.51 Z" style="stroke:none;fill:#00BFA6;stroke-miterlimit:10;"/></g><g style="mix-blend-mode:normal;" opacity="0.1"><path d="M 121.662 138.25 L 149.528 138.25 C 151.074 138.25 152.33 139.507 152.33 141.055 L 152.33 144.955 C 152.33 146.503 151.074 147.76 149.528 147.76 L 121.662 147.76 C 120.116 147.76 118.86 146.503 118.86 144.955 L 118.86 141.055 C 118.86 139.507 120.116 138.25 121.662 138.25 Z" style="stroke:none;fill:#00BFA6;stroke-miterlimit:10;"/></g><g style="mix-blend-mode:normal;" opacity="0.35"><path d="M 158.631 147.76 L 182.599 147.76 C 185.221 147.76 187.35 149.888 187.35 152.51 L 187.35 152.51 C 187.35 155.132 185.221 157.26 182.599 157.26 L 158.631 157.26 C 156.009 157.26 153.88 155.132 153.88 152.51 L 153.88 152.51 C 153.88 149.888 156.009 147.76 158.631 147.76 Z" style="stroke:none;fill:#032420;stroke-miterlimit:10;"/></g><g style="mix-blend-mode:normal;" opacity="0.1"><path d="M 191.712 157.26 L 219.578 157.26 C 221.124 157.26 222.38 158.515 222.38 160.062 L 222.38 163.958 C 222.38 165.505 221.124 166.76 219.578 166.76 L 191.712 166.76 C 190.166 166.76 188.91 165.505 188.91 163.958 L 188.91 160.062 C 188.91 158.515 190.166 157.26 191.712 157.26 Z" style="stroke:none;fill:#00BFA6;stroke-miterlimit:10;"/></g><g style="mix-blend-mode:normal;" opacity="0.35"><path d="M 232.581 152.51 L 256.549 152.51 C 259.171 152.51 261.3 154.638 261.3 157.26 L 261.3 157.26 C 261.3 159.882 259.171 162.01 256.549 162.01 L 232.581 162.01 C 229.959 162.01 227.83 159.882 227.83 157.26 L 227.83 157.26 C 227.83 154.638 229.959 152.51 232.581 152.51 Z" style="stroke:none;fill:#032420;stroke-miterlimit:10;"/></g><g style="mix-blend-mode:normal;" opacity="0.1"><path d="M 265.662 162.01 L 293.528 162.01 C 295.074 162.01 296.33 163.265 296.33 164.812 L 296.33 168.708 C 296.33 170.255 295.074 171.51 293.528 171.51 L 265.662 171.51 C 264.116 171.51 262.86 170.255 262.86 168.708 L 262.86 164.812 C 262.86 163.265 264.116 162.01 265.662 162.01 Z" style="stroke:none;fill:#00BFA6;stroke-miterlimit:10;"/></g><g style="mix-blend-mode:normal;" opacity="0.1"><path d="M 300.692 171.51 L 328.558 171.51 C 330.104 171.51 331.36 172.765 331.36 174.312 L 331.36 178.208 C 331.36 179.755 330.104 181.01 328.558 181.01 L 300.692 181.01 C 299.146 181.01 297.89 179.755 297.89 178.208 L 297.89 174.312 C 297.89 172.765 299.146 171.51 300.692 171.51 Z" style="stroke:none;fill:#00BFA6;stroke-miterlimit:10;"/></g><g style="mix-blend-mode:normal;" opacity="0.35"><path d="M 232.581 138.25 L 256.549 138.25 C 259.171 138.25 261.3 140.381 261.3 143.005 L 261.3 143.005 C 261.3 145.629 259.171 147.76 256.549 147.76 L 232.581 147.76 C 229.959 147.76 227.83 145.629 227.83 143.005 L 227.83 143.005 C 227.83 140.381 229.959 138.25 232.581 138.25 Z" style="stroke:none;fill:#032420;stroke-miterlimit:10;"/></g><g style="mix-blend-mode:normal;" opacity="0.35"><path d="M 267.611 147.76 L 291.579 147.76 C 294.201 147.76 296.33 149.888 296.33 152.51 L 296.33 152.51 C 296.33 155.132 294.201 157.26 291.579 157.26 L 267.611 157.26 C 264.989 157.26 262.86 155.132 262.86 152.51 L 262.86 152.51 C 262.86 149.888 264.989 147.76 267.611 147.76 Z" style="stroke:none;fill:#032420;stroke-miterlimit:10;"/></g><g style="mix-blend-mode:normal;" opacity="0.1"><path d="M 300.692 157.26 L 328.558 157.26 C 330.104 157.26 331.36 158.515 331.36 160.062 L 331.36 163.958 C 331.36 165.505 330.104 166.76 328.558 166.76 L 300.692 166.76 C 299.146 166.76 297.89 165.505 297.89 163.958 L 297.89 160.062 C 297.89 158.515 299.146 157.26 300.692 157.26 Z" style="stroke:none;fill:#00BFA6;stroke-miterlimit:10;"/></g><g style="mix-blend-mode:normal;" opacity="0.35"><path d="M 123.611 119.25 L 147.579 119.25 C 150.201 119.25 152.33 121.378 152.33 124 L 152.33 124 C 152.33 126.622 150.201 128.75 147.579 128.75 L 123.611 128.75 C 120.989 128.75 118.86 126.622 118.86 124 L 118.86 124 C 118.86 121.378 120.989 119.25 123.611 119.25 Z" style="stroke:none;fill:#032420;stroke-miterlimit:10;"/></g><g style="mix-blend-mode:normal;" opacity="0.35"><path d="M 158.631 128.75 L 182.599 128.75 C 185.221 128.75 187.35 130.878 187.35 133.5 L 187.35 133.5 C 187.35 136.122 185.221 138.25 182.599 138.25 L 158.631 138.25 C 156.009 138.25 153.88 136.122 153.88 133.5 L 153.88 133.5 C 153.88 130.878 156.009 128.75 158.631 128.75 Z" style="stroke:none;fill:#032420;stroke-miterlimit:10;"/></g><g style="mix-blend-mode:normal;" opacity="0.35"><path d="M 193.661 138.25 L 217.629 138.25 C 220.251 138.25 222.38 140.381 222.38 143.005 L 222.38 143.005 C 222.38 145.629 220.251 147.76 217.629 147.76 L 193.661 147.76 C 191.039 147.76 188.91 145.629 188.91 143.005 L 188.91 143.005 C 188.91 140.381 191.039 138.25 193.661 138.25 Z" style="stroke:none;fill:#032420;stroke-miterlimit:10;"/></g><g style="mix-blend-mode:normal;" opacity="0.35"><path d="M 123.611 105 L 147.579 105 C 150.201 105 152.33 107.128 152.33 109.75 L 152.33 109.75 C 152.33 112.372 150.201 114.5 147.579 114.5 L 123.611 114.5 C 120.989 114.5 118.86 112.372 118.86 109.75 L 118.86 109.75 C 118.86 107.128 120.989 105 123.611 105 Z" style="stroke:none;fill:#032420;stroke-miterlimit:10;"/></g><g style="mix-blend-mode:normal;" opacity="0.35"><path d="M 158.583 114.5 L 182.647 114.5 C 185.243 114.5 187.35 116.607 187.35 119.203 L 187.35 119.298 C 187.35 121.893 185.243 124 182.647 124 L 158.583 124 C 155.987 124 153.88 121.893 153.88 119.298 L 153.88 119.203 C 153.88 116.607 155.987 114.5 158.583 114.5 Z" style="stroke:none;fill:#032420;stroke-miterlimit:10;"/></g><g style="mix-blend-mode:normal;" opacity="0.35"><path d="M 193.661 124 L 217.629 124 C 220.251 124 222.38 126.128 222.38 128.75 L 222.38 128.75 C 222.38 131.372 220.251 133.5 217.629 133.5 L 193.661 133.5 C 191.039 133.5 188.91 131.372 188.91 128.75 L 188.91 128.75 C 188.91 126.128 191.039 124 193.661 124 Z" style="stroke:none;fill:#032420;stroke-miterlimit:10;"/></g><g style="mix-blend-mode:normal;" opacity="0.35"><path d="M 232.581 119.25 L 256.549 119.25 C 259.171 119.25 261.3 121.378 261.3 124 L 261.3 124 C 261.3 126.622 259.171 128.75 256.549 128.75 L 232.581 128.75 C 229.959 128.75 227.83 126.622 227.83 124 L 227.83 124 C 227.83 121.378 229.959 119.25 232.581 119.25 Z" style="stroke:none;fill:#032420;stroke-miterlimit:10;"/></g><g style="mix-blend-mode:normal;" opacity="0.35"><path d="M 267.611 128.75 L 291.579 128.75 C 294.201 128.75 296.33 130.878 296.33 133.5 L 296.33 133.5 C 296.33 136.122 294.201 138.25 291.579 138.25 L 267.611 138.25 C 264.989 138.25 262.86 136.122 262.86 133.5 L 262.86 133.5 C 262.86 130.878 264.989 128.75 267.611 128.75 Z" style="stroke:none;fill:#032420;stroke-miterlimit:10;"/></g><g style="mix-blend-mode:normal;" opacity="0.35"><path d="M 302.641 138.25 L 326.609 138.25 C 329.231 138.25 331.36 140.381 331.36 143.005 L 331.36 143.005 C 331.36 145.629 329.231 147.76 326.609 147.76 L 302.641 147.76 C 300.019 147.76 297.89 145.629 297.89 143.005 L 297.89 143.005 C 297.89 140.381 300.019 138.25 302.641 138.25 Z" style="stroke:none;fill:#032420;stroke-miterlimit:10;"/></g><g style="mix-blend-mode:normal;" opacity="0.35"><path d="M 232.581 105 L 256.549 105 C 259.171 105 261.3 107.128 261.3 109.75 L 261.3 109.75 C 261.3 112.372 259.171 114.5 256.549 114.5 L 232.581 114.5 C 229.959 114.5 227.83 112.372 227.83 109.75 L 227.83 109.75 C 227.83 107.128 229.959 105 232.581 105 Z" style="stroke:none;fill:#032420;stroke-miterlimit:10;"/></g><g style="mix-blend-mode:normal;" opacity="0.35"><path d="M 267.611 114.5 L 291.579 114.5 C 294.201 114.5 296.33 116.628 296.33 119.25 L 296.33 119.25 C 296.33 121.872 294.201 124 291.579 124 L 267.611 124 C 264.989 124 262.86 121.872 262.86 119.25 L 262.86 119.25 C 262.86 116.628 264.989 114.5 267.611 114.5 Z" style="stroke:none;fill:#032420;stroke-miterlimit:10;"/></g><g style="mix-blend-mode:normal;" opacity="0.35"><path d="M 302.641 124 L 326.609 124 C 329.231 124 331.36 126.128 331.36 128.75 L 331.36 128.75 C 331.36 131.372 329.231 133.5 326.609 133.5 L 302.641 133.5 C 300.019 133.5 297.89 131.372 297.89 128.75 L 297.89 128.75 C 297.89 126.128 300.019 124 302.641 124 Z" style="stroke:none;fill:#032420;stroke-miterlimit:10;"/></g><g style="mix-blend-mode:normal;" opacity="0.35"><path d="M 123.611 321.7 L 147.579 321.7 C 150.201 321.7 152.33 323.828 152.33 326.45 L 152.33 326.45 C 152.33 329.072 150.201 331.2 147.579 331.2 L 123.611 331.2 C 120.989 331.2 118.86 329.072 118.86 326.45 L 118.86 326.45 C 118.86 323.828 120.989 321.7 123.611 321.7 Z" style="stroke:none;fill:#032420;stroke-miterlimit:10;"/></g><g style="mix-blend-mode:normal;" opacity="0.35"><path d="M 158.631 331.2 L 182.599 331.2 C 185.221 331.2 187.35 333.331 187.35 335.955 L 187.35 335.955 C 187.35 338.579 185.221 340.71 182.599 340.71 L 158.631 340.71 C 156.009 340.71 153.88 338.579 153.88 335.955 L 153.88 335.955 C 153.88 333.331 156.009 331.2 158.631 331.2 Z" style="stroke:none;fill:#032420;stroke-miterlimit:10;"/></g><g style="mix-blend-mode:normal;" opacity="0.35"><path d="M 193.661 340.71 L 217.629 340.71 C 220.251 340.71 222.38 342.838 222.38 345.46 L 222.38 345.46 C 222.38 348.082 220.251 350.21 217.629 350.21 L 193.661 350.21 C 191.039 350.21 188.91 348.082 188.91 345.46 L 188.91 345.46 C 188.91 342.838 191.039 340.71 193.661 340.71 Z" style="stroke:none;fill:#032420;stroke-miterlimit:10;"/></g><g style="mix-blend-mode:normal;" opacity="0.35"><path d="M 123.611 307.45 L 147.579 307.45 C 150.201 307.45 152.33 309.578 152.33 312.2 L 152.33 312.2 C 152.33 314.822 150.201 316.95 147.579 316.95 L 123.611 316.95 C 120.989 316.95 118.86 314.822 118.86 312.2 L 118.86 312.2 C 118.86 309.578 120.989 307.45 123.611 307.45 Z" style="stroke:none;fill:#032420;stroke-miterlimit:10;"/></g><g style="mix-blend-mode:normal;" opacity="0.35"><path d="M 158.631 316.95 L 182.599 316.95 C 185.221 316.95 187.35 319.078 187.35 321.7 L 187.35 321.7 C 187.35 324.322 185.221 326.45 182.599 326.45 L 158.631 326.45 C 156.009 326.45 153.88 324.322 153.88 321.7 L 153.88 321.7 C 153.88 319.078 156.009 316.95 158.631 316.95 Z" style="stroke:none;fill:#032420;stroke-miterlimit:10;"/></g><g style="mix-blend-mode:normal;" opacity="0.35"><path d="M 193.661 326.45 L 217.629 326.45 C 220.251 326.45 222.38 328.581 222.38 331.205 L 222.38 331.205 C 222.38 333.829 220.251 335.96 217.629 335.96 L 193.661 335.96 C 191.039 335.96 188.91 333.829 188.91 331.205 L 188.91 331.205 C 188.91 328.581 191.039 326.45 193.661 326.45 Z" style="stroke:none;fill:#032420;stroke-miterlimit:10;"/></g><g style="mix-blend-mode:normal;" opacity="0.35"><path d="M 232.581 321.7 L 256.549 321.7 C 259.171 321.7 261.3 323.828 261.3 326.45 L 261.3 326.45 C 261.3 329.072 259.171 331.2 256.549 331.2 L 232.581 331.2 C 229.959 331.2 227.83 329.072 227.83 326.45 L 227.83 326.45 C 227.83 323.828 229.959 321.7 232.581 321.7 Z" style="stroke:none;fill:#032420;stroke-miterlimit:10;"/></g><g style="mix-blend-mode:normal;" opacity="0.35"><path d="M 267.611 331.2 L 291.579 331.2 C 294.201 331.2 296.33 333.331 296.33 335.955 L 296.33 335.955 C 296.33 338.579 294.201 340.71 291.579 340.71 L 267.611 340.71 C 264.989 340.71 262.86 338.579 262.86 335.955 L 262.86 335.955 C 262.86 333.331 264.989 331.2 267.611 331.2 Z" style="stroke:none;fill:#032420;stroke-miterlimit:10;"/></g><g style="mix-blend-mode:normal;" opacity="0.1"><path d="M 300.692 340.71 L 328.558 340.71 C 330.104 340.71 331.36 341.965 331.36 343.512 L 331.36 347.408 C 331.36 348.955 330.104 350.21 328.558 350.21 L 300.692 350.21 C 299.146 350.21 297.89 348.955 297.89 347.408 L 297.89 343.512 C 297.89 341.965 299.146 340.71 300.692 340.71 Z" style="stroke:none;fill:#00BFA6;stroke-miterlimit:10;"/></g><g style="mix-blend-mode:normal;" opacity="0.35"><path d="M 232.581 307.45 L 256.549 307.45 C 259.171 307.45 261.3 309.578 261.3 312.2 L 261.3 312.2 C 261.3 314.822 259.171 316.95 256.549 316.95 L 232.581 316.95 C 229.959 316.95 227.83 314.822 227.83 312.2 L 227.83 312.2 C 227.83 309.578 229.959 307.45 232.581 307.45 Z" style="stroke:none;fill:#032420;stroke-miterlimit:10;"/></g><g style="mix-blend-mode:normal;" opacity="0.35"><path d="M 267.611 316.95 L 291.579 316.95 C 294.201 316.95 296.33 319.078 296.33 321.7 L 296.33 321.7 C 296.33 324.322 294.201 326.45 291.579 326.45 L 267.611 326.45 C 264.989 326.45 262.86 324.322 262.86 321.7 L 262.86 321.7 C 262.86 319.078 264.989 316.95 267.611 316.95 Z" style="stroke:none;fill:#032420;stroke-miterlimit:10;"/></g><g style="mix-blend-mode:normal;" opacity="0.1"><path d="M 300.692 326.45 L 328.558 326.45 C 330.104 326.45 331.36 327.707 331.36 329.255 L 331.36 333.155 C 331.36 334.703 330.104 335.96 328.558 335.96 L 300.692 335.96 C 299.146 335.96 297.89 334.703 297.89 333.155 L 297.89 329.255 C 297.89 327.707 299.146 326.45 300.692 326.45 Z" style="stroke:none;fill:#00BFA6;stroke-miterlimit:10;"/></g><g style="mix-blend-mode:normal;" opacity="0.35"><path d="M 123.611 288.45 L 147.579 288.45 C 150.201 288.45 152.33 290.578 152.33 293.2 L 152.33 293.2 C 152.33 295.822 150.201 297.95 147.579 297.95 L 123.611 297.95 C 120.989 297.95 118.86 295.822 118.86 293.2 L 118.86 293.2 C 118.86 290.578 120.989 288.45 123.611 288.45 Z" style="stroke:none;fill:#032420;stroke-miterlimit:10;"/></g><g style="mix-blend-mode:normal;" opacity="0.35"><path d="M 158.631 297.95 L 182.599 297.95 C 185.221 297.95 187.35 300.078 187.35 302.7 L 187.35 302.7 C 187.35 305.322 185.221 307.45 182.599 307.45 L 158.631 307.45 C 156.009 307.45 153.88 305.322 153.88 302.7 L 153.88 302.7 C 153.88 300.078 156.009 297.95 158.631 297.95 Z" style="stroke:none;fill:#032420;stroke-miterlimit:10;"/></g><g style="mix-blend-mode:normal;" opacity="0.35"><path d="M 193.661 307.45 L 217.629 307.45 C 220.251 307.45 222.38 309.578 222.38 312.2 L 222.38 312.2 C 222.38 314.822 220.251 316.95 217.629 316.95 L 193.661 316.95 C 191.039 316.95 188.91 314.822 188.91 312.2 L 188.91 312.2 C 188.91 309.578 191.039 307.45 193.661 307.45 Z" style="stroke:none;fill:#032420;stroke-miterlimit:10;"/></g><g style="mix-blend-mode:normal;" opacity="0.1"><path d="M 121.662 274.2 L 149.528 274.2 C 151.074 274.2 152.33 275.455 152.33 277.002 L 152.33 280.898 C 152.33 282.445 151.074 283.7 149.528 283.7 L 121.662 283.7 C 120.116 283.7 118.86 282.445 118.86 280.898 L 118.86 277.002 C 118.86 275.455 120.116 274.2 121.662 274.2 Z" style="stroke:none;fill:#00BFA6;stroke-miterlimit:10;"/></g><g style="mix-blend-mode:normal;" opacity="0.35"><path d="M 158.631 283.7 L 182.599 283.7 C 185.221 283.7 187.35 285.828 187.35 288.45 L 187.35 288.45 C 187.35 291.072 185.221 293.2 182.599 293.2 L 158.631 293.2 C 156.009 293.2 153.88 291.072 153.88 288.45 L 153.88 288.45 C 153.88 285.828 156.009 283.7 158.631 283.7 Z" style="stroke:none;fill:#032420;stroke-miterlimit:10;"/></g><g style="mix-blend-mode:normal;" opacity="0.35"><path d="M 193.661 293.2 L 217.629 293.2 C 220.251 293.2 222.38 295.328 222.38 297.95 L 222.38 297.95 C 222.38 300.572 220.251 302.7 217.629 302.7 L 193.661 302.7 C 191.039 302.7 188.91 300.572 188.91 297.95 L 188.91 297.95 C 188.91 295.328 191.039 293.2 193.661 293.2 Z" style="stroke:none;fill:#032420;stroke-miterlimit:10;"/></g><g style="mix-blend-mode:normal;" opacity="0.35"><path d="M 232.581 288.45 L 256.549 288.45 C 259.171 288.45 261.3 290.578 261.3 293.2 L 261.3 293.2 C 261.3 295.822 259.171 297.95 256.549 297.95 L 232.581 297.95 C 229.959 297.95 227.83 295.822 227.83 293.2 L 227.83 293.2 C 227.83 290.578 229.959 288.45 232.581 288.45 Z" style="stroke:none;fill:#032420;stroke-miterlimit:10;"/></g><g style="mix-blend-mode:normal;" opacity="0.35"><path d="M 267.611 297.95 L 291.579 297.95 C 294.201 297.95 296.33 300.078 296.33 302.7 L 296.33 302.7 C 296.33 305.322 294.201 307.45 291.579 307.45 L 267.611 307.45 C 264.989 307.45 262.86 305.322 262.86 302.7 L 262.86 302.7 C 262.86 300.078 264.989 297.95 267.611 297.95 Z" style="stroke:none;fill:#032420;stroke-miterlimit:10;"/></g><g style="mix-blend-mode:normal;" opacity="0.1"><path d="M 300.692 307.45 L 328.558 307.45 C 330.104 307.45 331.36 308.705 331.36 310.252 L 331.36 314.148 C 331.36 315.695 330.104 316.95 328.558 316.95 L 300.692 316.95 C 299.146 316.95 297.89 315.695 297.89 314.148 L 297.89 310.252 C 297.89 308.705 299.146 307.45 300.692 307.45 Z" style="stroke:none;fill:#00BFA6;stroke-miterlimit:10;"/></g><g style="mix-blend-mode:normal;" opacity="0.1"><path d="M 230.632 274.2 L 258.498 274.2 C 260.044 274.2 261.3 275.455 261.3 277.002 L 261.3 280.898 C 261.3 282.445 260.044 283.7 258.498 283.7 L 230.632 283.7 C 229.086 283.7 227.83 282.445 227.83 280.898 L 227.83 277.002 C 227.83 275.455 229.086 274.2 230.632 274.2 Z" style="stroke:none;fill:#00BFA6;stroke-miterlimit:10;"/></g><g style="mix-blend-mode:normal;" opacity="0.35"><path d="M 267.611 283.7 L 291.579 283.7 C 294.201 283.7 296.33 285.828 296.33 288.45 L 296.33 288.45 C 296.33 291.072 294.201 293.2 291.579 293.2 L 267.611 293.2 C 264.989 293.2 262.86 291.072 262.86 288.45 L 262.86 288.45 C 262.86 285.828 264.989 283.7 267.611 283.7 Z" style="stroke:none;fill:#032420;stroke-miterlimit:10;"/></g><g style="mix-blend-mode:normal;" opacity="0.1"><path d="M 300.692 293.2 L 328.558 293.2 C 330.104 293.2 331.36 294.455 331.36 296.002 L 331.36 299.898 C 331.36 301.445 330.104 302.7 328.558 302.7 L 300.692 302.7 C 299.146 302.7 297.89 301.445 297.89 299.898 L 297.89 296.002 C 297.89 294.455 299.146 293.2 300.692 293.2 Z" style="stroke:none;fill:#00BFA6;stroke-miterlimit:10;"/></g><g opacity="0.21"><ellipse vector-effect="non-scaling-stroke" cx="231.13896770252242" cy="368.844327176781" rx="170.66206019422944" ry="13.155672823218993" fill="rgb(46,46,46)" style="mix-blend-mode:linear_burn;"/></g><path d=" M 76.348 173.263 C 92.442 179.812 101.689 193.362 101.689 193.362 C 101.689 193.362 84.841 196.286 68.743 189.741 C 52.646 183.196 43.403 169.642 43.403 169.642 C 43.403 169.642 60.251 166.715 76.348 173.263 Z " fill="rgb(7,213,185)"/><path d=" M 125.737 148.121 C 130.715 140.447 139.192 136.793 139.192 136.793 C 139.192 136.793 139.581 145.541 134.619 153.194 C 129.656 160.846 121.16 164.497 121.16 164.497 C 121.16 164.497 120.755 155.752 125.737 148.121 Z " fill="rgb(0,191,166)"/><path d=" M 89.145 156.333 C 92.706 168.268 102.522 176.125 102.522 176.125 C 102.522 176.125 106.565 164.624 103.004 152.686 C 99.443 140.747 89.624 132.894 89.624 132.894 C 89.624 132.894 85.58 144.394 89.145 156.333 Z " fill="rgb(70,69,91)"/><path d="M 92.389 155.8 L 370.671 155.8 C 372.172 155.8 373.39 157.018 373.39 158.519 L 373.39 286.461 C 373.39 287.962 372.172 289.18 370.671 289.18 L 92.389 289.18 C 90.888 289.18 89.67 287.962 89.67 286.461 L 89.67 158.519 C 89.67 157.018 90.888 155.8 92.389 155.8 Z" style="stroke:none;fill:#747474;stroke-miterlimit:10;"/><g opacity="0.1"><path d=" M 89.667 281.14 L 373.39 281.14 L 373.39 286.545 C 373.39 287.243 373.094 287.914 372.568 288.408 C 372.042 288.902 371.328 289.179 370.584 289.179 L 92.473 289.179 C 90.923 289.179 89.667 288 89.667 286.545 L 89.667 281.14 Z " fill="rgb(0,0,0)"/></g><path d="M 118.243 271.27 L 137.377 271.27 C 137.897 271.27 138.32 271.693 138.32 272.213 L 138.32 280.197 C 138.32 280.717 137.897 281.14 137.377 281.14 L 118.243 281.14 C 117.723 281.14 117.3 280.717 117.3 280.197 L 117.3 272.213 C 117.3 271.693 117.723 271.27 118.243 271.27 Z" style="stroke:none;fill:#FFFFFF;stroke-miterlimit:10;"/><path d="M 144.904 279.68 L 157.796 279.68 C 158.212 279.68 158.55 280.007 158.55 280.41 L 158.55 280.41 C 158.55 280.813 158.212 281.14 157.796 281.14 L 144.904 281.14 C 144.488 281.14 144.15 280.813 144.15 280.41 L 144.15 280.41 C 144.15 280.007 144.488 279.68 144.904 279.68 Z" style="stroke:none;fill:#FFFFFF;stroke-miterlimit:10;"/><path d=" M 131.369 181.88 C 141.64 183.66 152.117 181.88 162.345 180.674 L 193.43 177.02 C 194.687 176.87 196.516 176.165 197.256 177.608 C 197.672 178.416 197.392 180.166 197.423 181.095 C 197.505 183.653 197.497 186.211 197.423 188.769 C 197.283 193.658 196.901 198.537 196.415 203.404 C 195.469 212.931 194.13 222.407 193.461 231.971 C 193.118 236.838 192.947 241.72 193.099 246.588 C 193.134 247.75 193.185 248.912 193.259 250.071 C 193.34 251.368 193.959 253.294 192.453 254.16 C 191.593 254.657 189.9 254.631 188.915 254.777 C 187.358 255.008 185.802 255.19 184.214 255.34 C 173.748 256.323 163.147 255.914 152.642 255.855 L 120.923 255.702 L 113.186 255.662 C 112.485 255.662 109.959 256.056 109.527 255.274 C 109.344 254.942 109.831 253.385 109.916 252.968 Q 110.095 251.938 110.306 250.911 C 111.208 246.106 112.275 241.329 113.349 236.557 C 115.657 226.325 118.019 216.041 118.969 205.59 C 119.44 200.346 119.129 195.054 119.705 189.821 C 119.973 187.391 120.292 181.968 123.737 181.752 C 126.656 181.57 129.66 181.752 132.587 181.752 C 132.909 181.752 133.171 181.507 133.171 181.204 C 133.171 180.901 132.909 180.656 132.587 180.656 C 129.824 180.656 127.057 180.587 124.293 180.638 C 122.456 180.671 121.18 181.08 120.304 182.666 C 118.066 186.737 118.296 192.167 118.226 196.611 C 118.058 207.249 116.319 217.66 114.054 228.064 C 112.913 233.301 111.683 238.519 110.551 243.759 C 110.018 246.263 109.508 248.773 109.041 251.291 C 108.823 252.49 107.721 255.132 108.69 256.232 C 109.659 257.332 112.641 256.74 113.976 256.747 L 123.262 256.798 L 141.056 256.893 C 152.553 256.955 164.088 257.259 175.581 256.941 C 181.069 256.787 186.868 256.575 192.212 255.344 C 193.803 254.978 194.57 254.291 194.632 252.698 C 194.726 250.228 194.298 247.681 194.243 245.199 C 193.854 223.967 199.167 203.032 198.622 181.793 C 198.587 180.349 199.167 176.709 197.485 175.836 C 196.73 175.441 195.749 175.657 194.955 175.745 C 193.438 175.909 191.924 176.11 190.406 176.278 L 170.693 178.588 C 164.392 179.319 158.095 180.108 151.782 180.78 C 145.1 181.511 138.351 181.946 131.692 180.78 C 130.956 180.652 130.641 181.709 131.38 181.836 L 131.369 181.88 Z " fill="rgb(255,255,255)"/><path d=" M 118.977 194.798 L 196.746 191.217 C 197.497 191.181 197.501 190.084 196.746 190.121 L 118.977 193.702 C 118.23 193.735 118.226 194.831 118.977 194.798 Z " fill="rgb(255,255,255)"/><path d=" M 142.936 185.761 C 142.494 186.201 142.312 186.817 142.45 187.407 C 142.588 187.997 143.028 188.485 143.625 188.71 C 144.671 189.16 145.901 188.783 146.94 188.539 C 148.497 188.173 150.054 187.848 151.654 187.581 C 155.135 187.002 158.662 186.694 162.197 186.66 C 163.808 186.642 165.408 186.711 167.019 186.777 C 168.187 186.821 169.444 186.909 170.432 186.229 C 171.561 185.454 171.927 183.941 170.822 182.999 C 169.265 181.665 165.91 182.439 164.112 182.578 C 157.587 183.087 151.105 183.995 144.707 185.297 C 143.975 185.443 144.282 186.503 145.018 186.353 Q 151.35 185.071 157.78 184.292 Q 160.94 183.927 164.112 183.675 C 165.108 183.598 166.104 183.528 167.101 183.474 C 167.49 183.452 167.903 183.411 168.3 183.422 C 169.533 183.448 169.677 183.24 168.938 184.639 C 168.28 185.878 168.49 185.736 167.35 185.695 C 166.867 185.695 166.385 185.644 165.902 185.622 Q 164.419 185.564 162.936 185.56 Q 159.78 185.56 156.639 185.845 C 154.865 186.006 153.094 186.233 151.338 186.525 C 150.241 186.708 149.151 186.92 148.065 187.154 C 147.587 187.26 147.104 187.369 146.625 187.482 C 146.396 187.541 146.162 187.592 145.932 187.647 Q 144.656 188.063 143.757 186.551 C 144.278 186.043 143.457 185.264 142.932 185.776 L 142.936 185.761 Z " fill="rgb(255,255,255)"/><path d=" M 157.032 201.358 C 151.401 201.153 145.318 202.582 141.609 206.84 C 138.705 210.169 137.051 215.88 140.126 219.63 C 143.43 223.65 150.677 222.941 155.047 221.227 C 159.671 219.4 164.731 215.632 166.12 210.918 C 167.852 205.031 162.228 200.58 156.371 200.514 C 155.62 200.514 155.62 201.61 156.371 201.61 C 159.71 201.647 162.987 202.991 164.544 205.911 C 166.175 208.988 164.77 212.219 162.598 214.682 C 159.118 218.603 153.677 221.559 148.135 221.475 C 144.808 221.428 141.13 220.357 140.098 217.061 C 139.25 214.389 139.896 211.47 141.375 209.102 C 144.574 203.985 151.085 202.253 157.056 202.473 C 157.807 202.498 157.807 201.402 157.056 201.376 L 157.032 201.358 Z " fill="rgb(255,255,255)"/><path d=" M 151.44 209.478 C 150.952 209.308 150.405 209.385 149.991 209.682 C 149.577 209.978 149.354 210.453 149.4 210.94 C 149.517 212.365 151.191 212.767 152.448 212.683 C 153.533 212.595 154.802 212.219 154.421 210.943 C 154.279 210.487 153.932 210.11 153.471 209.913 C 153.123 209.783 152.745 209.739 152.374 209.785 C 152.23 209.785 150.91 210.238 151.471 209.694 L 150.552 209.58 C 150.759 209.771 150.862 210.04 150.832 210.311 C 150.836 210.505 150.948 210.684 151.128 210.78 C 151.307 210.877 151.528 210.878 151.708 210.783 C 151.98 210.676 152.294 210.722 152.517 210.904 C 152.741 211.085 152.836 211.369 152.763 211.638 C 152.698 211.899 152.843 212.166 153.106 212.271 C 153.369 212.375 153.674 212.287 153.829 212.062 C 154.218 211.404 154.689 210.096 154.106 209.409 C 153.716 208.944 152.965 209.083 152.498 209.354 C 152.21 209.545 151.942 209.762 151.696 210.001 C 151.226 210.392 150.918 210.574 151.093 209.825 C 151.385 208.462 152.771 207.377 154.036 206.832 L 153.179 206.215 C 152.73 207.799 151.928 209.275 150.825 210.545 L 151.821 210.932 C 151.763 209.904 152.398 208.953 153.409 208.553 L 152.837 208.553 L 153.14 209.021 C 153.028 209.712 154.152 210.008 154.265 209.31 C 154.413 208.407 153.806 207.234 152.681 207.676 C 151.338 208.203 150.642 209.646 150.669 210.932 C 150.669 211.371 151.331 211.711 151.669 211.323 C 152.907 209.912 153.81 208.268 154.32 206.503 C 154.375 206.289 154.29 206.065 154.104 205.931 C 153.918 205.797 153.665 205.78 153.46 205.886 C 152.294 206.381 151.308 207.186 150.626 208.203 C 150.151 208.933 149.556 210.074 150.038 210.914 C 150.198 211.186 150.467 211.386 150.785 211.471 C 151.103 211.555 151.444 211.516 151.731 211.364 C 152.091 211.163 152.42 210.917 152.708 210.633 C 152.852 210.512 153.012 210.304 153.203 210.267 C 153.374 210.158 153.366 210.22 153.175 210.461 C 153.173 210.84 153.055 211.21 152.837 211.528 L 153.903 211.948 C 154.099 211.251 153.841 210.511 153.243 210.059 C 152.645 209.606 151.82 209.526 151.136 209.854 L 152.016 210.329 C 152.034 209.864 151.878 209.408 151.576 209.039 C 151.483 208.895 151.325 208.799 151.147 208.777 C 150.97 208.755 150.791 208.81 150.661 208.926 C 150.07 209.507 149.957 210.512 150.7 211.049 C 151.257 211.448 151.529 211.049 152.14 210.958 C 154.215 210.706 153.004 211.583 152.272 211.612 C 151.945 211.645 151.614 211.623 151.296 211.546 Q 150.077 211.159 151.144 210.549 C 151.84 210.815 152.14 209.756 151.455 209.493 L 151.44 209.478 Z " fill="rgb(255,255,255)"/><path d=" M 150.502 211.481 C 150.98 212.942 149.003 213.425 148.065 213.929 C 147.407 214.276 146.833 214.747 146.38 215.314 C 145.399 216.549 145.033 218.121 144.71 219.601 C 144.563 220.291 145.687 220.584 145.839 219.893 C 146.017 218.805 146.348 217.745 146.824 216.739 C 147.524 215.431 148.528 214.992 149.836 214.32 C 151.144 213.648 152.09 212.606 151.626 211.188 C 151.408 210.516 150.28 210.804 150.502 211.481 L 150.502 211.481 Z " fill="rgb(255,255,255)"/><path d=" M 152.448 210.746 C 151.871 210.821 151.449 211.296 151.475 211.842 C 151.475 212.277 151.782 212.555 151.992 212.902 C 152.491 213.612 152.872 214.39 153.121 215.208 C 153.308 215.994 153.491 217.401 153.055 218.131 C 152.249 219.487 150.794 219.228 149.552 219.228 C 148.384 219.228 147.481 219.593 147.52 218.066 C 147.544 217.207 148.182 216.337 148.688 215.661 L 147.622 215.53 C 147.847 216.645 147.965 217.778 147.976 218.914 C 147.976 219.421 148.805 219.703 149.062 219.188 C 149.687 217.952 150.184 216.662 150.544 215.336 L 149.396 215.19 L 149.599 217.967 C 149.606 218.21 149.782 218.421 150.032 218.485 C 150.282 218.549 150.547 218.451 150.685 218.245 C 150.821 218.104 150.921 217.935 150.976 217.751 C 151.015 217.58 150.657 216.421 150.513 216.834 L 151.658 216.98 L 151.739 214.342 L 150.572 214.488 C 150.818 215.232 150.893 216.017 150.79 216.79 C 150.716 217.401 151.809 217.539 151.957 216.937 L 152.689 213.392 L 151.623 213.52 C 151.876 214.01 151.946 214.566 151.821 215.098 C 151.735 215.8 152.903 215.793 152.989 215.098 C 153.088 214.371 152.964 213.632 152.631 212.968 C 152.51 212.781 152.283 212.679 152.052 212.707 C 151.821 212.736 151.629 212.89 151.564 213.099 L 150.829 216.644 L 151.977 216.79 C 152.093 215.919 152.004 215.035 151.716 214.199 C 151.635 213.939 151.365 213.774 151.079 213.809 C 150.793 213.845 150.577 214.071 150.572 214.342 L 150.49 216.98 C 150.49 217.62 151.436 217.711 151.638 217.127 L 151.7 216.947 C 151.755 216.758 151.699 216.555 151.552 216.414 C 150.342 215.179 150.097 217.145 149.677 217.689 L 150.766 217.967 L 150.564 215.19 C 150.521 214.598 149.587 214.415 149.416 215.044 C 149.087 216.28 148.631 217.483 148.054 218.636 L 149.143 218.914 C 149.131 217.68 149.001 216.449 148.754 215.237 C 148.653 214.733 147.949 214.755 147.688 215.106 C 146.909 216.158 145.563 218.457 146.602 219.717 C 147.509 220.814 150.362 220.39 151.58 220.32 C 153.502 220.218 154.199 219.074 154.409 217.371 C 154.509 216.556 154.461 215.73 154.265 214.93 C 154.16 214.499 153.098 211.766 152.778 211.82 C 153.518 211.693 153.203 210.633 152.467 210.761 L 152.448 210.746 Z " fill="rgb(255,255,255)"/><path d=" M 150.177 213.062 L 146.989 217.012 L 147.997 217.564 L 150.332 214.392 L 149.266 213.968 L 148.102 218.138 C 148.037 218.399 148.182 218.667 148.445 218.771 C 148.709 218.876 149.014 218.787 149.169 218.562 C 149.698 217.738 150.293 216.953 150.947 216.212 L 149.974 215.679 C 149.713 216.623 149.209 217.492 148.507 218.211 L 149.484 218.745 C 149.544 218.24 149.687 217.747 149.908 217.283 C 150.208 216.651 149.258 216.092 148.9 216.727 C 148.571 217.307 148.195 217.861 147.775 218.387 L 148.842 218.518 L 149.079 217.477 L 148.013 217.345 L 148.184 218.259 C 148.241 218.446 148.399 218.59 148.599 218.64 C 148.8 218.689 149.013 218.636 149.161 218.5 C 150.148 217.541 150.939 216.42 151.496 215.193 L 150.492 215.193 C 150.756 215.65 150.941 216.143 151.041 216.654 C 151.181 217.312 152.111 217.067 152.185 216.508 C 152.352 215.284 152.438 214.051 152.442 212.817 L 151.274 212.817 L 151.274 215.116 C 151.274 215.712 152.313 215.887 152.422 215.262 C 152.499 214.708 152.694 214.173 152.994 213.691 L 151.971 213.691 C 152.217 214.064 152.352 214.494 152.36 214.933 C 152.36 215.236 152.621 215.481 152.944 215.481 C 153.266 215.481 153.528 215.236 153.528 214.933 L 153.675 214.202 L 152.551 214.202 C 152.664 214.849 153.092 218.492 151.57 218.065 C 151.313 218.006 151.239 218.021 151.348 218.105 L 151.694 217.411 L 152.508 215.792 L 151.418 215.514 C 151.488 216.267 151.562 217.341 151.08 217.985 C 150.69 218.507 149.492 218.715 148.881 218.408 C 148.477 218.138 148.132 217.799 147.865 217.407 L 147.067 218.138 C 147.713 218.58 148.76 219.666 149.593 219.728 C 150.227 219.775 150.76 219.282 151.177 218.887 C 152.468 217.635 153.156 215.94 153.08 214.199 C 153.08 213.896 152.819 213.65 152.496 213.65 C 152.174 213.65 151.912 213.896 151.912 214.199 L 151.912 215.448 C 151.912 215.751 152.174 215.997 152.496 215.997 C 152.819 215.997 153.08 215.751 153.08 215.448 L 153.08 212.382 C 153.08 212.08 152.819 211.834 152.496 211.834 C 152.174 211.834 151.912 212.08 151.912 212.382 C 151.91 213.117 151.843 213.851 151.71 214.575 L 152.858 214.721 C 152.767 213.848 152.724 212.971 152.73 212.094 C 152.726 211.822 152.511 211.594 152.225 211.558 C 151.938 211.521 151.666 211.687 151.585 211.948 C 151.41 212.646 151.196 213.333 150.99 214.016 L 152.056 213.884 L 151.975 213.592 C 151.92 212.894 150.753 212.89 150.807 213.592 C 150.82 213.888 150.902 214.177 151.048 214.44 C 151.274 214.886 151.979 214.729 152.115 214.308 C 152.337 213.621 152.535 212.934 152.71 212.24 L 151.562 212.094 C 151.556 212.971 151.599 213.848 151.691 214.721 C 151.749 215.284 152.714 215.525 152.835 214.867 C 152.99 214.042 153.072 213.206 153.08 212.368 L 151.912 212.368 L 151.912 215.434 L 153.08 215.434 L 153.08 214.184 L 151.912 214.184 C 151.981 215.563 151.471 216.911 150.492 217.941 C 150.34 218.103 150.176 218.254 150.001 218.394 C 149.725 218.642 149.472 218.606 149.25 218.281 C 148.698 218.065 148.126 217.509 147.643 217.184 C 147.16 216.859 146.499 217.502 146.841 217.933 C 147.736 219.052 149.071 220.298 150.733 219.761 C 152.481 219.18 152.718 216.958 152.586 215.496 C 152.543 215.01 151.768 214.681 151.5 215.222 C 151.111 215.993 150.721 216.76 150.332 217.535 C 150.196 217.805 149.943 218.178 149.982 218.5 C 150.11 219.322 151.173 219.187 151.827 219.139 C 154.36 218.96 153.96 215.587 153.668 213.892 C 153.57 213.329 152.699 213.417 152.543 213.892 C 152.419 214.225 152.355 214.576 152.352 214.929 L 153.52 214.929 C 153.477 214.301 153.29 213.689 152.971 213.135 C 152.865 212.969 152.673 212.867 152.467 212.867 C 152.261 212.867 152.069 212.969 151.963 213.135 C 151.615 213.699 151.38 214.319 151.27 214.962 L 152.438 215.109 L 152.438 212.81 C 152.438 212.507 152.176 212.262 151.854 212.262 C 151.532 212.262 151.27 212.507 151.27 212.81 C 151.266 214.044 151.181 215.277 151.013 216.501 L 152.161 216.355 C 152.029 215.757 151.805 215.181 151.496 214.644 C 151.39 214.478 151.198 214.376 150.992 214.376 C 150.785 214.376 150.594 214.478 150.488 214.644 C 149.98 215.789 149.251 216.835 148.336 217.729 L 149.313 217.97 L 149.141 217.056 C 149.052 216.57 148.32 216.556 148.075 216.925 C 147.684 217.48 147.556 218.163 147.721 218.81 C 147.818 219.329 148.519 219.275 148.787 218.942 C 149.207 218.418 149.583 217.865 149.912 217.287 L 148.904 216.731 C 148.635 217.277 148.451 217.857 148.359 218.452 C 148.289 218.935 148.9 219.439 149.336 218.986 C 150.173 218.126 150.778 217.091 151.103 215.967 C 151.247 215.47 150.515 214.999 150.126 215.434 C 149.41 216.239 148.759 217.095 148.18 217.992 L 149.246 218.416 L 150.433 214.261 C 150.498 213.999 150.353 213.732 150.09 213.628 C 149.827 213.523 149.522 213.611 149.367 213.837 L 147.032 217.012 C 146.596 217.601 147.596 218.109 148.04 217.564 L 151.216 213.618 C 151.667 213.055 150.655 212.521 150.208 213.062 L 150.177 213.062 Z " fill="rgb(255,255,255)"/><path d=" M 199.84 226.398 C 204.51 223.715 208.223 219.714 212.349 216.366 C 216.824 212.738 221.522 209.357 226.36 206.156 C 235.755 199.944 245.621 194.385 255.479 188.842 C 255.745 188.684 255.83 188.357 255.671 188.103 C 255.513 187.848 255.169 187.756 254.892 187.895 C 245.033 193.439 235.163 198.986 225.768 205.21 C 221.335 208.133 217.007 211.232 212.858 214.521 C 208.344 218.102 204.323 222.561 199.237 225.451 C 198.594 225.817 199.182 226.767 199.824 226.398 L 199.84 226.398 Z " fill="rgb(255,255,255)"/><path d=" M 270.553 171.82 C 265.493 172.302 260.044 173.512 256.931 177.667 C 254.242 181.241 254.3 187.475 256.826 191.144 C 259.694 195.314 265.555 195.464 270.109 194.115 C 274.663 192.767 279.376 190.402 279.333 185.293 C 279.31 182.553 278.255 179.699 277.091 177.214 C 276.087 175.069 274.308 173.194 271.615 173.431 C 270.872 173.497 270.864 174.594 271.615 174.528 C 275.223 174.213 276.383 178.237 277.239 180.777 C 278.018 183.148 278.738 185.955 277.515 188.312 C 276.293 190.669 273.347 191.871 270.829 192.734 C 268.105 193.662 265.112 194.228 262.267 193.465 C 256.631 191.985 255.074 185.279 256.697 180.521 C 258.566 175.039 265.182 173.428 270.572 172.916 C 271.312 172.847 271.319 171.75 270.572 171.82 L 270.553 171.82 Z " fill="rgb(255,255,255)"/><path d=" M 278.337 214.21 C 273.277 214.693 267.828 215.902 264.715 220.057 C 262.025 223.631 262.084 229.866 264.61 233.535 C 267.478 237.704 273.339 237.854 277.893 236.506 C 282.447 235.157 287.16 232.793 287.117 227.684 C 287.094 224.943 286.039 222.089 284.875 219.604 C 283.871 217.459 282.092 215.584 279.399 215.822 C 278.656 215.888 278.648 216.984 279.399 216.918 C 283.007 216.604 284.167 220.627 285.023 223.167 C 285.801 225.539 286.521 228.345 285.299 230.702 C 284.077 233.06 281.131 234.262 278.613 235.124 C 275.889 236.052 272.896 236.619 270.051 235.855 C 264.415 234.375 262.858 227.669 264.481 222.911 C 266.349 217.43 272.966 215.818 278.356 215.307 C 279.096 215.237 279.103 214.141 278.356 214.21 L 278.337 214.21 Z " fill="rgb(255,255,255)"/><path d=" M 262.921 182.494 L 266.606 186.441 C 266.755 186.575 266.967 186.627 267.167 186.577 C 267.366 186.527 267.522 186.382 267.579 186.196 C 268.358 184.274 268.21 182.282 268.393 180.261 C 268.594 178.173 269.153 176.128 270.047 174.206 C 271.842 170.308 274.887 167.032 278.757 164.833 C 279.399 164.467 278.811 163.517 278.169 163.886 C 274.353 166.044 271.292 169.202 269.362 172.971 C 268.417 174.805 267.761 176.759 267.416 178.77 C 267.027 181.142 267.381 183.627 266.447 185.904 L 267.424 185.659 L 263.757 181.719 C 263.259 181.19 262.438 181.968 262.932 182.494 L 262.921 182.494 Z " fill="rgb(255,255,255)"/><path d=" M 201.72 230.67 Q 231.832 229.807 261.959 230.304 C 262.71 230.304 262.71 229.208 261.959 229.208 Q 231.84 228.704 201.72 229.573 C 200.969 229.595 200.965 230.691 201.72 230.67 Z " fill="rgb(255,255,255)"/><path d=" M 266.155 219.86 C 273.017 222.389 279.618 225.503 285.875 229.164 C 286.514 229.529 287.101 228.59 286.463 228.217 C 280.124 224.512 273.435 221.361 266.482 218.804 C 265.785 218.544 265.482 219.604 266.174 219.86 L 266.155 219.86 Z " fill="rgb(255,255,255)"/><path d=" M 278.617 214.894 C 271.658 222.511 267.627 232.103 267.171 242.13 C 267.14 242.835 268.307 242.835 268.338 242.13 C 268.78 232.391 272.69 223.073 279.442 215.668 C 279.928 215.135 279.107 214.357 278.617 214.894 Z " fill="rgb(255,255,255)"/><path d=" M 122.958 226.69 L 166.459 226.156 L 171.46 226.094 C 172.359 226.094 173.258 226.065 174.157 226.061 C 175.422 226.061 176.274 227.048 176.251 228.254 C 176.192 230.812 174.48 230.721 172.238 230.812 L 166.832 231.042 L 144.819 231.952 C 140.877 232.117 136.93 232.318 132.988 232.446 C 129.431 232.548 122.666 231.459 124.247 226.599 C 124.464 225.923 123.34 225.634 123.118 226.306 C 122.339 228.696 123.717 231.123 125.936 232.376 C 129.084 234.152 133.233 233.549 136.709 233.403 L 163.734 232.252 L 170.296 231.978 C 171.977 231.905 174.316 232.226 175.862 231.492 C 177.675 230.633 177.994 227.224 176.85 225.787 C 176.262 225.056 175.437 224.991 174.515 224.958 C 172.094 224.87 169.631 225.02 167.206 225.049 L 153.732 225.217 L 122.943 225.583 C 122.192 225.583 122.192 226.679 122.943 226.679 L 122.958 226.69 Z " fill="rgb(255,255,255)"/><g><path d=" M 298.711 360.987 C 297.73 361.565 296.609 361.89 295.597 362.398 C 294.586 362.906 293.601 363.67 293.313 364.722 C 293.205 365.049 293.223 365.401 293.363 365.716 C 293.615 366.097 294.001 366.384 294.453 366.527 C 298.608 368.26 303.339 368.31 307.534 366.666 C 308.265 366.337 309.019 366.056 309.791 365.826 C 310.743 365.644 311.712 365.551 312.683 365.548 C 313.704 365.492 314.72 365.37 315.723 365.183 C 316.227 365.13 316.705 364.944 317.1 364.645 C 317.462 364.255 317.679 363.765 317.719 363.25 C 318.18 360.402 317.485 357.497 315.773 355.108 C 315.558 354.773 315.268 354.485 314.925 354.263 C 314.506 354.06 314.045 353.944 313.574 353.924 C 311.628 353.701 309.589 353.291 307.624 353.248 C 306.215 353.218 305.506 353.847 304.51 354.757 C 302.451 356.69 301.249 359.5 298.711 360.987 Z " fill="rgb(50,52,68)"/><path d=" M 327.391 360.717 C 327.391 362.508 327.62 364.404 328.776 365.833 C 329.305 366.451 329.945 366.977 330.668 367.386 C 333.112 368.848 336.35 369.385 338.927 368.146 C 339.343 367.971 339.699 367.69 339.954 367.335 C 340.343 366.699 340.137 365.906 339.919 365.205 L 336.191 353.072 C 333.781 353.419 330.24 353.664 328.099 354.812 C 326.546 355.641 327.391 359.116 327.391 360.717 Z " fill="rgb(50,52,68)"/><path d=" M 296.524 286.011 C 296.298 286.68 295.481 286.99 295.033 287.553 C 294.508 288.215 294.562 289.132 294.753 289.936 C 294.988 291.121 295.581 292.218 296.461 293.097 C 297.368 293.98 298.673 294.396 299.964 294.215 C 301.217 293.992 302.299 292.951 302.342 291.756 C 302.32 291.212 302.196 290.677 301.976 290.173 L 299.322 282.967 C 299.3 282.864 299.232 282.775 299.135 282.722 C 299.035 282.701 298.93 282.718 298.843 282.77 C 298.217 283.047 296.96 283.34 296.594 283.95 C 296.228 284.56 296.788 285.35 296.524 286.011 Z " fill="rgb(251,179,178)"/><path d=" M 295.282 285.649 C 296.251 285.507 297.1 284.973 298.007 284.622 C 298.913 284.272 300.05 284.136 300.813 284.721 C 301.031 284.889 301.241 285.119 301.525 285.116 C 301.138 283.329 300.554 281.585 299.781 279.912 C 299.754 279.832 299.701 279.762 299.63 279.711 C 299.523 279.671 299.405 279.671 299.299 279.711 L 296.679 280.354 C 295.71 280.592 295.597 280.519 295.671 281.414 C 295.691 281.812 295.909 285.649 295.282 285.649 Z " fill="rgb(50,52,68)"/><path d=" M 294.994 233.611 C 294.605 234.174 294.605 234.876 294.605 235.537 C 294.605 238.771 294.64 242.024 295.15 245.225 C 295.271 245.992 295.422 246.76 295.5 247.534 C 295.588 248.613 295.607 249.695 295.555 250.776 L 295.165 264.845 C 295.119 266.566 295.025 268.415 293.893 269.767 C 293.549 270.221 293.388 270.774 293.437 271.328 C 293.733 274.858 294.356 278.359 294.975 281.849 C 296.996 280.993 299.331 281.097 301.256 282.13 C 303.22 276.333 304.306 270.305 304.483 264.224 C 304.572 261.231 304.436 258.22 304.926 255.263 C 305.748 250.286 305.413 245.181 304.81 240.175 C 304.619 238.589 304.214 236.955 303.132 235.727 C 302.108 234.653 300.744 233.915 299.24 233.622 C 297.8 233.268 296.512 233.633 294.994 233.611 Z " fill="rgb(91,85,131)"/><g opacity="0.1"><path d=" M 294.994 233.611 C 294.605 234.174 294.605 234.876 294.605 235.537 C 294.605 238.771 294.64 242.024 295.15 245.225 C 295.271 245.992 295.422 246.76 295.5 247.534 C 295.588 248.613 295.607 249.695 295.555 250.776 L 295.165 264.845 C 295.119 266.566 295.025 268.415 293.893 269.767 C 293.549 270.221 293.388 270.774 293.437 271.328 C 293.733 274.858 294.356 278.359 294.975 281.849 C 296.996 280.993 299.331 281.097 301.256 282.13 C 303.22 276.333 304.306 270.305 304.483 264.224 C 304.572 261.231 304.436 258.22 304.926 255.263 C 305.748 250.286 305.413 245.181 304.81 240.175 C 304.619 238.589 304.214 236.955 303.132 235.727 C 302.108 234.653 300.744 233.915 299.24 233.622 C 297.8 233.268 296.512 233.633 294.994 233.611 Z " fill="rgb(0,0,0)"/></g><path d=" M 299.75 274.412 C 297.14 286.972 298.565 299.977 303.845 311.774 C 304.301 312.648 304.62 313.578 304.794 314.537 C 305.008 316.328 304.129 318.049 303.627 319.781 C 302.459 323.72 303.132 327.916 303.88 331.946 Q 304.347 334.468 304.841 336.986 C 305.164 338.623 305.475 340.402 304.666 341.886 C 305.362 344.612 305.775 347.313 306.472 350.039 C 306.545 350.255 306.568 350.483 306.538 350.708 C 306.397 351.065 306.15 351.375 305.826 351.603 C 304.769 352.609 304.356 354.063 304.74 355.429 C 306.518 354.231 308.997 354.651 311.029 355.429 C 313.061 356.208 315.061 357.256 317.256 357.256 C 316.937 354.837 316.63 352.297 317.579 350.028 C 318.132 348.712 319.105 347.47 319.078 346.063 C 319.05 344.802 318.229 343.677 318.031 342.431 C 317.957 341.655 317.988 340.874 318.124 340.106 C 318.646 335.634 318.054 331.117 317.462 326.651 C 317.396 325.771 317.175 324.906 316.809 324.093 C 316.532 323.567 316.12 323.063 316.128 322.474 C 316.128 321.791 316.715 321.235 316.933 320.585 C 317.322 319.386 316.606 317.756 317.684 317.015 C 320.525 315.056 319.436 310.378 319.373 307.071 Q 319.299 302.792 318.984 298.52 C 320.773 303.243 321.504 308.261 321.133 313.262 C 321.008 314.899 320.778 316.62 321.459 318.133 C 321.981 319.295 323.016 320.252 323.296 321.484 C 323.472 322.244 323.347 323.03 323.386 323.804 C 323.425 324.579 323.705 325.423 324.417 325.814 C 324.472 329.337 324.807 333.105 324.865 336.628 C 324.827 338.428 324.984 340.228 325.332 341.999 C 325.507 342.563 325.603 343.145 325.62 343.732 C 325.532 344.467 325.325 345.186 325.005 345.862 C 323.628 349.691 324.356 353.911 326.951 357.136 C 327.87 355.605 329.784 354.793 331.653 354.665 C 333.521 354.538 335.365 354.98 337.175 355.426 C 336.898 353.29 337.351 351.128 338.467 349.25 C 338.767 348.826 338.996 348.363 339.148 347.876 C 339.359 346.947 338.868 346.023 338.604 345.106 C 338.172 343.644 338.323 342.069 338.424 340.541 C 338.764 335.425 338.523 330.29 337.704 325.222 C 337.578 324.224 337.329 323.243 336.961 322.299 C 336.821 321.963 336.65 321.641 336.533 321.301 C 336.349 320.692 336.245 320.063 336.222 319.43 L 335.774 313.583 C 335.459 309.487 336.891 305.441 337.891 301.443 C 338.339 299.653 338.825 297.866 339.125 296.046 C 339.534 293.568 339.6 291.036 340.199 288.591 C 340.736 286.398 341.705 284.261 341.908 282.013 C 342.219 278.531 340.678 275.165 339.183 271.971 C 338.561 270.656 336.206 270.787 334.692 270.553 C 323.954 268.898 312.644 268.887 302.517 272.618 C 301.47 273.025 300.527 273.637 299.75 274.412 Z " fill="rgb(60,53,76)"/><path d=" M 307.491 209.551 L 308.682 213.9 C 309.006 214.897 309.185 215.931 309.215 216.973 C 309.228 217.353 309.138 217.73 308.955 218.069 C 308.759 218.348 308.508 218.589 308.215 218.778 C 307.402 219.359 306.837 220.715 305.907 221.117 C 306.386 221.899 307.048 221.391 307.912 221.782 C 309.433 222.477 310.827 223.474 312.477 223.818 C 314.034 224.139 315.668 223.836 317.213 223.452 C 319.405 222.893 321.584 222.122 323.347 220.774 C 325.11 219.425 326.114 218.234 326.106 216.103 C 324.16 216.319 322.429 214.473 321.568 212.814 C 321.27 212.184 321.051 211.523 320.915 210.845 L 319.872 206.536 C 318.735 206.77 317.809 207.534 316.723 207.932 C 315.637 208.331 314.353 208.367 313.146 208.418 C 311.005 208.51 308.875 208.769 306.779 209.193 C 306.491 209.248 306.129 209.419 306.199 209.683" fill="rgb(251,179,178)"/><g opacity="0.1"><path d=" M 307.491 209.551 L 308.682 213.9 C 309.006 214.897 309.185 215.931 309.215 216.973 C 309.228 217.353 309.138 217.73 308.955 218.069 C 308.759 218.348 308.508 218.589 308.215 218.778 C 307.402 219.359 306.837 220.715 305.907 221.117 C 306.386 221.899 307.048 221.391 307.912 221.782 C 309.433 222.477 310.827 223.474 312.477 223.818 C 314.034 224.139 315.668 223.836 317.213 223.452 C 319.405 222.893 321.584 222.122 323.347 220.774 C 325.11 219.425 326.114 218.234 326.106 216.103 C 324.16 216.319 322.429 214.473 321.568 212.814 C 321.27 212.184 321.051 211.523 320.915 210.845 L 319.872 206.536 C 318.735 206.77 317.809 207.534 316.723 207.932 C 315.637 208.331 314.353 208.367 313.146 208.418 C 311.005 208.51 308.875 208.769 306.779 209.193 C 306.491 209.248 306.129 209.419 306.199 209.683" fill="rgb(0,0,0)"/></g><ellipse vector-effect="non-scaling-stroke" cx="312.60529025635617" cy="202.27158311345624" rx="10.305886782082553" ry="9.676728232189987" fill="rgb(251,179,178)"/><path d=" M 315.443 218.223 C 315.994 217.105 316.789 216.109 317.778 215.299 C 319.229 214.104 321.214 213.136 321.557 211.353 L 324.701 214.791 C 324.872 214.951 325.005 215.143 325.091 215.354 C 325.171 215.755 325.063 216.169 324.795 216.491 C 324.016 217.656 322.791 218.49 321.631 219.334 C 318.972 221.311 316.427 223.419 314.006 225.648 C 313.9 225.765 313.757 225.847 313.598 225.882 C 313.447 225.886 313.299 225.847 313.174 225.769 C 311.085 224.739 309.236 223.328 307.736 221.618 C 307.624 221.49 307.483 221.344 307.301 221.355 C 307.19 221.374 307.089 221.423 307.009 221.497 C 305.962 222.301 304.817 223.262 303.475 223.138 C 305.214 221.965 306.199 220.006 306.565 218.022 C 306.637 217.343 306.786 216.673 307.009 216.023 C 307.243 215.363 307.812 214.856 308.527 214.671 C 307.678 215.888 308.258 217.613 309.398 218.596 C 310.506 219.479 311.835 220.083 313.259 220.353 C 314.582 220.587 314.972 219.18 315.443 218.223 Z " fill="rgb(50,52,68)"/><path d=" M 302.035 275.406 C 303.502 275.746 304.891 276.323 306.316 276.751 C 308.912 277.514 311.644 277.784 314.353 277.544 C 315.186 277.527 315.997 277.284 316.688 276.846 C 316.871 276.707 317.038 276.543 317.233 276.415 C 317.558 276.231 317.911 276.095 318.28 276.009 C 321.849 274.96 324.838 272.698 327.737 270.484 C 327.831 270.411 327.936 270.319 327.928 270.202 C 327.915 270.123 327.873 270.05 327.811 269.994 L 326.285 268.35 C 322.285 268.989 318.186 268.748 314.127 268.653 C 313.294 268.618 312.459 268.639 311.628 268.715 C 310.827 268.803 310.037 268.993 309.247 269.154 C 306.246 269.767 303.179 270.001 300.139 270.403 C 299.927 270.418 299.72 270.478 299.536 270.579 C 299.408 270.672 299.299 270.786 299.213 270.915 L 298.147 272.322 C 297.733 272.795 297.428 273.344 297.252 273.933 C 297.002 275.03 297.524 275.395 298.516 275.253 C 299.689 275.092 300.883 275.144 302.035 275.406 Z " fill="rgb(50,52,68)"/><path d=" M 313.964 223.975 C 312.773 222.829 311.423 221.84 309.951 221.033 C 309.356 220.678 308.696 220.43 308.005 220.302 C 307.301 220.172 306.571 220.34 306.012 220.763 C 305.666 221.051 305.448 221.453 305.113 221.757 C 304.692 222.089 304.209 222.345 303.689 222.513 C 301.917 223.224 300.238 224.123 298.684 225.192 C 297.837 225.748 297.073 226.409 296.415 227.158 C 294.652 229.277 294.387 232.161 294.434 234.85 C 294.469 236.721 296.38 238.11 297.695 239.509 C 298.929 240.887 300.046 242.353 301.035 243.895 C 301.743 244.947 302.482 246.087 302.393 247.341 C 302.319 248.368 301.681 249.332 301.782 250.356 C 301.817 250.721 301.941 251.057 301.976 251.412 C 302.046 252.143 301.739 252.873 301.661 253.604 C 301.556 254.638 301.914 255.665 301.934 256.707 C 301.919 257.42 301.823 258.129 301.646 258.823 C 300.898 262.163 299.96 265.521 300.151 268.931 L 297.995 269.296 C 298.409 269.677 298.605 270.221 298.523 270.76 C 298.441 271.299 298.09 271.769 297.578 272.026 C 300.945 273.082 304.584 272.548 308.153 272.545 C 311.107 272.545 314.049 272.91 316.999 272.859 C 319.949 272.808 322.993 272.307 325.425 270.74 C 326.087 270.316 326.694 269.819 327.391 269.45 C 328.324 268.996 329.33 268.687 330.368 268.536 C 332.292 268.191 334.248 268.027 336.206 268.046 C 337.163 268.046 338.207 268.083 338.969 267.542 C 339.81 266.943 340.024 265.857 340.137 264.874 C 340.25 263.836 340.32 262.795 340.339 261.754 C 340.372 260.942 340.326 260.13 340.203 259.327 C 340.086 258.74 339.934 258.159 339.748 257.588 L 338.28 252.735 C 337.673 250.732 338.518 248.536 338.697 246.46 C 338.74 245.97 338.748 245.4 338.347 245.086 C 338.203 244.973 338.004 244.896 337.957 244.721 C 337.915 244.552 337.949 244.375 338.051 244.231 C 338.829 242.769 339.997 241.479 341.063 240.16 C 342.854 237.846 344.517 235.447 346.045 232.972 C 345.566 227.793 343.244 222.917 339.452 219.129 C 338.674 218.336 337.782 217.576 336.693 217.218 C 335.98 217.014 335.242 216.902 334.498 216.885 C 331.446 216.692 328.27 216.52 325.612 215.08 C 325.421 214.956 325.205 214.87 324.978 214.828 C 324.39 214.766 323.962 215.31 323.581 215.742 C 322.6 216.838 321.156 217.466 319.887 218.274 C 317.521 219.783 315.672 221.859 313.964 223.975 Z " fill="rgb(152,0,0)"/><path d=" M 346.31 234.466 C 346.917 236.272 346.858 238.201 347.057 240.083 C 347.174 241.219 347.387 242.344 347.691 243.449 C 347.83 244.056 348.081 244.636 348.431 245.163 C 348.781 245.645 349.283 246.036 349.505 246.581 C 349.626 246.95 349.68 247.335 349.664 247.721 L 349.711 250.242 C 349.811 251.578 349.594 252.919 349.077 254.167 L 347.399 258.958 C 346.493 261.553 345.562 264.187 343.928 266.446 C 343.697 266.828 343.349 267.135 342.927 267.326 C 342.598 267.408 342.26 267.457 341.919 267.473 C 340.695 267.678 339.799 268.67 339.783 269.837 C 339.393 269.303 338.907 268.836 338.347 268.459 L 334.933 265.901 C 333.766 265.01 332.548 264.103 331.131 263.588 C 335.024 262.446 337.834 259.258 338.3 255.453 C 338.299 254.899 338.432 254.352 338.689 253.853 C 338.973 253.422 339.499 253.093 339.538 252.585 C 339.584 251.945 338.814 251.463 338.814 250.823 C 338.814 250.399 339.148 250.049 339.296 249.65 C 339.435 249.158 339.435 248.641 339.296 248.148 L 338.825 245.693 C 338.798 245.447 338.718 245.208 338.592 244.991 C 338.416 244.783 338.22 244.59 338.008 244.414 C 337.199 243.562 337.557 242.221 338.008 241.172 C 339.045 238.844 340.381 236.644 341.986 234.62 C 342.557 233.94 343.086 233.23 343.57 232.493 C 343.982 231.821 344.076 230.889 344.512 230.3 C 345.072 231.682 345.831 233.045 346.31 234.466 Z " fill="rgb(91,85,131)"/><path d=" M 331.01 263.738 C 330.837 263.859 330.687 264.007 330.567 264.176 C 330.108 264.717 329.497 265.126 328.804 265.357 C 329.193 265.62 329.547 265.879 329.913 266.146 C 332.62 268.109 335.098 270.335 337.307 272.786 C 337.553 271.964 339.02 272.022 339.378 271.237 C 339.462 271.012 339.489 270.771 339.456 270.535 C 339.381 269.304 339.194 268.081 338.895 266.881 C 338.778 266.262 338.511 265.678 338.117 265.17 C 337.572 264.553 336.724 264.257 335.914 264.001 C 334.688 263.599 332.256 263.033 331.01 263.738 Z " fill="rgb(50,52,68)"/><path d=" M 326.145 266.61 C 324.978 267.421 323.954 268.437 322.643 268.993 C 321.716 269.387 320.662 269.559 319.852 270.148 C 320.292 271.057 321.436 271.529 322.499 271.492 C 323.562 271.394 324.581 271.043 325.46 270.473 C 326.157 270.071 326.974 269.603 327.733 269.884 C 327.85 270.44 327.344 270.962 327.344 271.525 C 327.344 272.088 327.842 272.497 328.333 272.793 C 330.668 274.208 333.672 274.091 336.455 273.926 C 336.615 273.932 336.772 273.888 336.903 273.802 C 337.025 273.668 337.085 273.495 337.07 273.32 C 337.105 272.742 337.121 272.168 337.125 271.591 C 337.285 270.641 336.845 269.689 335.996 269.15 C 334.486 267.931 332.857 266.848 331.131 265.916 C 329.419 264.984 327.683 265.536 326.145 266.61 Z " fill="rgb(251,179,178)"/><path d=" M 316.225 198.226 C 314.497 198.42 313.24 199.688 313.415 201.066 C 313.59 202.443 315.131 203.393 316.859 203.196 C 318.587 202.999 319.844 201.734 319.669 200.36 C 319.494 198.986 317.953 198.033 316.225 198.226 Z  M 316.812 202.816 C 315.349 202.981 314.045 202.173 313.894 201.011 C 313.742 199.849 314.812 198.774 316.272 198.61 C 317.731 198.445 319.039 199.253 319.19 200.415 C 319.342 201.577 318.272 202.652 316.812 202.816 L 316.812 202.816 Z " fill="rgb(60,53,76)"/><path d=" M 307.803 199.176 C 306.075 199.37 304.817 200.638 304.993 202.012 C 305.168 203.386 306.709 204.34 308.437 204.146 C 310.165 203.953 311.422 202.685 311.247 201.307 C 311.072 199.929 309.531 198.983 307.803 199.176 Z  M 308.39 203.763 C 306.927 203.927 305.623 203.119 305.475 201.961 C 305.327 200.803 306.39 199.724 307.853 199.556 C 309.317 199.388 310.62 200.2 310.768 201.362 C 310.916 202.524 309.85 203.598 308.39 203.763 Z " fill="rgb(60,53,76)"/><path d=" M 301.548 199.882 L 305.304 200.634 L 304.934 201.563 L 301.393 200.587 L 301.548 199.882 L 301.548 199.882 Z " fill="rgb(60,53,76)"/><path d=" M 322.483 197.521 L 319.019 199.089 L 319.615 199.907 L 322.81 198.171 L 322.483 197.521 L 322.483 197.521 Z " fill="rgb(60,53,76)"/><path d=" M 310.901 200.401 L 313.535 200.105 L 313.399 200.718 L 311.138 200.861 L 310.901 200.401 L 310.901 200.401 Z " fill="rgb(60,53,76)"/><path d=" M 305.79 199.571 C 306.038 199.07 306.171 198.526 306.18 197.974 C 306.189 197.644 306.249 197.316 306.359 197.002 C 306.55 196.603 306.841 196.253 307.207 195.982 C 308.421 195.018 310.161 194.521 311.878 194.451 C 313.749 194.37 315.611 194.748 317.28 195.548 C 317.789 195.772 318.246 196.09 318.622 196.483 C 319.167 197.108 319.284 197.916 319.833 198.533 C 320.594 199.295 321.725 199.628 322.814 199.41 C 323.005 198.774 322.756 198.102 322.853 197.451 C 323.006 196.894 323.213 196.351 323.472 195.829 C 324.075 194.159 323.195 192.222 321.382 191.224 C 320.747 190.859 319.996 190.621 319.521 190.128 C 319.046 189.635 318.934 189.123 318.607 188.63 C 317.739 187.325 315.493 186.715 313.785 187.318 C 313.247 187.508 312.773 187.797 312.228 188.001 C 311.216 188.392 310.064 188.462 308.951 188.593 C 307.854 188.689 306.781 188.953 305.775 189.375 C 304.814 189.821 304.008 190.537 303.786 191.393 C 303.681 191.787 303.704 192.197 303.599 192.588 C 303.062 194.572 299.595 195.537 299.4 197.561 C 299.33 198.292 299.754 198.994 300.283 199.589 C 300.649 199.995 301.525 201.08 302.144 201.237 C 302.763 201.395 303.233 200.843 303.825 200.653 C 304.759 200.379 305.323 200.32 305.79 199.571 Z " fill="rgb(70,70,70)"/></g><path d=" M 349.696 328.281 C 349.696 346.64 361.963 361.499 377.122 361.499" fill="rgb(70,69,91)"/><path d=" M 377.122 361.503 C 377.122 342.935 390.814 327.912 407.732 327.912" fill="rgb(0,191,166)"/><path d=" M 359.636 329.947 C 359.636 347.39 367.458 361.503 377.122 361.503" fill="rgb(0,191,166)"/><path d=" M 377.122 361.503 C 377.122 337.779 392.947 318.579 412.5 318.579" fill="rgb(70,69,91)"/><g opacity="0.1"><ellipse vector-effect="non-scaling-stroke" cx="375.93512021030153" cy="366.7649999999998" rx="6.818698505365774" ry="1.0816886543535702" fill="rgb(0,191,166)"/></g><path d=" M 371.354 361.737 C 371.354 361.737 375.246 361.623 376.414 360.841 C 376.414 360.841 382.396 359.12 382.688 360.377 C 382.688 360.377 388.526 366.63 384.139 366.663 C 384.139 366.663 373.935 366.02 372.767 365.351 C 371.599 364.682 371.354 361.737 371.354 361.737 Z " fill="rgb(168,168,168)"/><g opacity="0.2"><path d=" M 384.221 366.224 C 379.831 366.257 374.02 365.581 372.849 364.912 C 371.958 364.404 371.603 362.573 371.483 361.733 L 371.354 361.733 C 371.354 361.733 371.599 364.678 372.771 365.347 C 372.771 365.347 379.753 366.692 384.143 366.659 C 385.412 366.659 385.848 366.224 385.825 365.599 C 385.649 365.979 385.186 366.217 384.221 366.224 Z " fill="rgb(0,0,0)"/></g><path d=" M 52.156 339.01 C 52.156 353.628 61.913 365.438 73.974 365.438" fill="rgb(70,69,91)"/><path d=" M 73.974 365.438 C 73.974 350.668 84.872 338.714 98.326 338.714" fill="rgb(0,191,166)"/><path d=" M 60.06 340.34 C 60.06 354.227 66.288 365.446 73.974 365.446" fill="rgb(0,191,166)"/><path d=" M 73.974 365.438 C 73.974 346.564 86.565 331.289 102.121 331.289" fill="rgb(70,69,91)"/><g opacity="0.1"><ellipse vector-effect="non-scaling-stroke" cx="73.02845013375216" cy="369.6263588390501" rx="5.425379975159771" ry="0.8624274406332688" fill="rgb(0,191,166)"/></g><path d=" M 69.386 365.625 C 69.386 365.625 72.48 365.533 73.41 364.894 C 73.41 364.894 78.174 363.524 78.403 364.529 C 78.403 364.529 83.054 369.502 79.571 369.528 C 79.571 369.528 71.452 369.016 70.522 368.486 C 69.592 367.956 69.386 365.625 69.386 365.625 Z " fill="rgb(168,168,168)"/><g opacity="0.2"><path d=" M 79.621 369.21 C 76.119 369.235 71.503 368.698 70.573 368.165 C 69.864 367.763 69.584 366.305 69.487 365.636 L 69.386 365.636 C 69.386 365.636 69.58 367.978 70.51 368.512 C 70.51 368.512 76.068 369.579 79.559 369.553 C 80.567 369.553 80.917 369.21 80.898 368.709 C 80.758 369.001 80.373 369.188 79.621 369.21 Z " fill="rgb(0,0,0)"/></g></g></g></svg>