<?xml version="1.0" encoding="UTF-8" standalone="no"?><!-- Generator: Gravit.io --><svg xmlns="http://www.w3.org/2000/svg" xmlns:xlink="http://www.w3.org/1999/xlink" style="isolation:isolate" viewBox="0 0 500 500" width="500pt" height="500pt"><defs><clipPath id="_clipPath_KPyby4pxMl2CnpH6xbvVxnxAZNtdIn8n"><rect width="500" height="500"/></clipPath></defs><g clip-path="url(#_clipPath_KPyby4pxMl2CnpH6xbvVxnxAZNtdIn8n)"><g><g opacity="0.28"><path d=" M 282.461 128.715 C 250.824 127.615 220.687 117.403 191.914 106.229 C 163.142 95.054 134.643 82.672 103.763 76.752 C 83.902 72.944 61.185 72.406 45.186 83.053 C 29.783 93.318 24.806 110.99 22.132 127.405 C 20.118 139.753 18.935 152.746 24.454 164.307 C 28.282 172.334 35.082 179.079 39.779 186.793 C 56.141 213.542 44.58 246.529 26.85 272.647 C 18.54 284.902 8.885 296.6 2.472 309.632 C -3.942 322.665 -6.914 337.618 -1.302 350.924 C 4.266 364.123 17.528 374.017 31.89 380.983 C 61.068 395.134 95.438 399.182 128.977 401.475 C 203.197 406.554 277.807 404.354 352.223 402.154 C 379.763 401.338 407.422 400.512 434.513 396.254 C 449.559 393.888 465.089 390.138 476.015 381.075 C 489.878 369.573 493.315 350.093 484.027 335.673 C 468.438 311.48 425.367 305.472 414.456 279.506 C 408.463 265.217 414.622 249.3 423.333 236.043 C 442.026 207.613 473.356 182.668 475.008 150.17 C 476.142 127.845 461.076 105.495 437.788 94.932 C 413.381 83.82 379.524 85.228 361.525 103.555 C 342.979 122.438 310.393 129.683 282.461 128.715 Z " fill="rgb(135,99,255)"/></g><path d=" M 212.863 399.536 L 45.545 398.72 L 28.919 359.726 L 87.707 355.458 L 77.461 312.705 L 193.735 297.634 L 82.393 258.928 L 92.228 256.591 L 271.264 285.799 L 261.404 352.52 L 247.311 389.188 L 212.863 399.536 L 212.863 399.536 Z " fill="rgb(108,99,255)"/><path d=" M 48.111 382.388 C 48.111 382.388 58.377 380.745 64.536 388 C 64.536 388 60.019 391.558 50.301 386.631 L 48.111 382.388 Z " fill="rgb(108,99,255)"/><path d=" M 47.036 382.227 C 47.036 382.227 40.485 390.287 43.712 399.262 C 43.712 399.262 49.05 397.126 49.631 386.245 L 47.036 382.227 Z " fill="rgb(108,99,255)"/><path d=" M 41.15 368.974 C 41.15 368.974 45.256 361.441 61.681 371.986 C 61.681 371.986 59.491 377.05 52.237 376.639 C 44.983 376.229 43.066 372.944 41.15 368.974 Z " fill="rgb(108,99,255)"/><path d=" M 40.089 368.432 C 40.089 368.432 31.569 367.454 30.743 386.959 C 30.743 386.959 36.144 388.078 39.982 381.909 C 43.819 375.74 42.245 372.279 40.089 368.432 Z " fill="rgb(108,99,255)"/><path d=" M 35.128 352.872 C 35.128 352.872 39.918 339.595 57.301 349.04 C 57.301 349.04 53.332 361.221 36.907 357.389 L 35.128 352.872 Z " fill="rgb(108,99,255)"/><path d=" M 29.79 333.025 C 29.79 333.025 38.823 319.612 54.837 332.048 C 54.837 332.048 49.226 344.64 31.158 337.796 L 29.79 333.025 Z " fill="rgb(108,99,255)"/><path d=" M 27.873 314.137 C 27.873 314.137 38.413 301.813 54.27 314.137 C 54.27 314.137 44.279 324.95 27.873 317.285 L 27.873 314.137 Z " fill="rgb(108,99,255)"/><path d=" M 26.231 295.791 C 26.231 295.791 36.907 282.925 52.1 295.107 C 52.1 295.107 40.055 306.467 26.231 298.802 L 26.231 295.791 Z " fill="rgb(108,99,255)"/><path d=" M 27.189 279.503 C 27.189 279.503 38.432 262.941 52.647 274.165 C 52.647 274.165 40.603 288.4 27.189 282.651 L 27.189 279.503 Z " fill="rgb(108,99,255)"/><path d=" M 29.79 260.478 C 29.79 260.478 41.698 244.053 55.522 256.645 C 55.522 256.645 41.424 270.88 29.79 263.489 L 29.79 260.478 Z " fill="rgb(108,99,255)"/><path d=" M 33.759 243.471 C 33.759 243.471 47.857 228.034 60.156 234.183 C 60.156 234.183 45.466 250.579 33.143 247.567 L 33.759 243.471 Z " fill="rgb(108,99,255)"/><path d=" M 38.686 227.349 C 38.686 227.349 54.955 208.441 64.419 214.757 C 64.419 214.757 52.432 229.422 37.533 230.888 L 38.686 227.349 Z " fill="rgb(108,99,255)"/><path d=" M 45.799 208.651 C 45.799 208.651 60.039 193.214 70.441 197.046 C 70.441 197.046 58.259 213.061 43.888 213.471 L 45.799 208.651 Z " fill="rgb(108,99,255)"/><path d=" M 52.237 191.161 C 52.237 191.161 67.977 176.379 74.821 178.979 C 74.821 178.979 63.46 195.404 51.552 194.446 L 52.237 191.161 Z " fill="rgb(108,99,255)"/><path d=" M 58.533 175.01 C 58.533 175.01 72.083 157.348 79.48 158.717 C 79.48 158.717 71.262 174.462 58.533 176.804 L 58.533 175.01 Z " fill="rgb(108,99,255)"/><path d=" M 65.367 153.232 C 65.367 153.232 77.343 139.696 83.815 139.726 C 83.815 139.726 74.361 157.813 64.873 157.646 L 65.367 153.232 Z " fill="rgb(108,99,255)"/><path d=" M 69.414 138.733 L 80.985 110.538 C 80.985 110.538 81.562 136.025 67.943 143.964 L 69.414 138.733 Z " fill="rgb(108,99,255)"/><path d=" M 74.112 107.639 C 74.112 107.639 76.028 84.092 74.796 82.175 C 74.796 82.175 83.068 101.753 74.034 118.041 L 74.112 107.639 Z " fill="rgb(108,99,255)"/><path d=" M 34.678 352.559 C 34.678 352.559 22.682 345.124 14.914 363.314 C 14.914 363.314 25.59 370.402 36.091 357.198 L 34.678 352.559 Z " fill="rgb(108,99,255)"/><path d=" M 29.403 332.268 C 29.403 332.268 14.689 325.556 7.552 344.547 C 7.552 344.547 18.918 352.369 30.743 337.068 L 29.403 332.268 Z " fill="rgb(108,99,255)"/><path d=" M 27.189 315.266 C 27.189 315.266 16.65 302.943 0.792 315.266 C 0.792 315.266 10.784 326.079 27.189 318.414 L 27.189 315.266 Z " fill="rgb(108,99,255)"/><path d=" M 25.869 295.791 C 25.869 295.791 15.193 282.925 0 295.107 C 0 295.107 12.045 306.467 25.869 298.802 L 25.869 295.791 Z " fill="rgb(108,99,255)"/><path d=" M 27.189 279.972 C 27.189 279.972 19.7 261.421 3.422 269.399 C 3.422 269.399 12.221 285.848 26.524 283.052 L 27.189 279.972 Z " fill="rgb(108,99,255)"/><path d=" M 30.733 260.385 C 30.733 260.385 23.288 241.511 6.78 250.261 C 6.78 250.261 16.889 267.561 30 263.298 L 30.733 260.385 Z " fill="rgb(108,99,255)"/><path d=" M 35.348 243.564 C 35.348 243.564 32.415 222.872 18.727 221.019 C 18.727 221.019 21.631 242.84 33.505 247.294 L 35.348 243.564 Z " fill="rgb(108,99,255)"/><path d=" M 39.033 227.388 C 39.033 227.388 37.89 202.458 26.573 201.588 C 26.573 201.588 26.954 220.511 37.758 230.918 L 39.033 227.388 Z " fill="rgb(108,99,255)"/><path d=" M 46.972 207.952 C 46.972 207.952 43.599 187.221 32.796 184.689 C 32.796 184.689 34.135 204.765 45.902 213.041 L 46.972 207.952 Z " fill="rgb(108,99,255)"/><path d=" M 53.518 191.332 C 53.518 191.332 53.405 169.735 46.806 166.563 C 46.806 166.563 42.714 186.116 51.606 194.089 L 53.518 191.332 Z " fill="rgb(108,99,255)"/><path d=" M 59.036 174.765 C 59.036 174.765 58.113 152.528 51.279 149.395 C 51.279 149.395 48.942 166.993 58.015 176.222 L 59.036 174.765 Z " fill="rgb(108,99,255)"/><path d=" M 66.32 155.007 C 66.32 155.007 66.281 136.92 61.402 132.677 C 61.402 132.677 56.553 152.489 63.773 158.644 L 66.32 155.007 Z " fill="rgb(108,99,255)"/><path d=" M 68.842 137.844 L 64.096 107.741 C 64.096 107.741 57.648 132.408 69.067 143.28 L 68.842 137.844 Z " fill="rgb(108,99,255)"/><path d=" M 69.766 107.922 C 69.766 107.922 57.585 87.685 57.834 85.436 C 57.834 85.436 59.129 106.646 74.454 117.21 L 69.766 107.922 Z " fill="rgb(108,99,255)"/><path d=" M 71.194 101.944 C 71.194 101.944 59.696 73.2 54.495 70.874 C 54.495 70.874 70.92 79.223 72.152 101.123 L 71.194 101.944 Z " fill="rgb(108,99,255)"/><path d=" M 64.815 157.818 L 64.027 157.578 C 73.731 125.936 76.151 105.762 70.847 100.702 L 71.409 100.106 C 77.035 105.444 74.753 125.398 64.815 157.818 Z " fill="rgb(68,64,83)"/><path d=" M 38.095 231.905 L 36.931 231.49 C 37.963 228.591 39.073 225.648 40.236 222.749 C 50.365 197.506 58.988 174.022 64.516 155.994 L 65.528 155.505 C 59.99 173.568 51.518 197.951 41.38 223.228 C 40.221 226.073 39.116 229.002 38.095 231.905 Z " fill="rgb(68,64,83)"/><path d=" M 62.576 406.067 C 62.419 405.896 46.693 388.185 35.729 357.951 C 29.304 340.25 25.729 321.642 25.136 302.82 C 24.383 279.293 29.32 253.023 37.777 229.158 L 38.696 230.233 C 19.71 283.795 27.252 329.692 37.259 357.33 C 48.106 387.291 63.656 404.806 63.808 404.982 L 62.576 406.067 Z " fill="rgb(68,64,83)"/><path d=" M 308.322 368.466 C 308.322 368.466 297.24 381.992 306.039 402.44 L 217.56 440.813 L 209.069 442.593 L 205.159 425.484 L 207.774 403.892 L 207.774 392.091 L 308.322 368.466 Z " fill="rgb(213,214,219)"/><path d=" M 28.919 359.726 L 151.382 337.401 L 313.651 363.25 L 212.863 399.536 L 28.919 359.726 L 28.919 359.726 Z " fill="rgb(108,99,255)"/><path d=" M 28.919 359.726 L 151.382 337.401 L 313.651 363.25 L 212.863 399.536 L 28.919 359.726 L 28.919 359.726 Z " fill="rgb(108,99,255)"/><path d=" M 28.919 359.721 C 28.919 359.721 17.466 381.42 30.665 401.462 L 212.266 440.813 C 212.266 440.813 200.994 423.528 212.848 399.536 L 28.919 359.721 Z " fill="rgb(108,99,255)"/><g opacity="0.1"><path d=" M 28.919 359.721 C 28.919 359.721 17.466 381.42 30.665 401.462 L 212.266 440.813 C 212.266 440.813 200.994 423.528 212.848 399.536 L 28.919 359.721 Z " fill="rgb(0,0,0)"/></g><g opacity="0.1"><path d=" M 34.331 367.244 C 34.331 367.244 27.785 383.121 34.331 393.396" fill="rgb(0,0,0)"/></g><path d=" M 212.266 440.813 L 313.651 397.552 C 313.651 397.552 319.321 398.774 315.655 402.929 C 315.655 402.929 214.222 444.968 214.222 444.968 L 30.665 401.462 L 212.266 440.813 Z " fill="rgb(108,99,255)"/><g opacity="0.1"><path d=" M 212.266 440.813 L 313.651 397.552 C 313.651 397.552 319.321 398.774 315.655 402.929 C 315.655 402.929 214.222 444.968 214.222 444.968 L 30.665 401.462 L 212.266 440.813 Z " fill="rgb(0,0,0)"/></g><g opacity="0.1"><path d=" M 203.956 403.906 C 203.956 403.906 194.18 415.638 203.956 433.236" fill="rgb(0,0,0)"/></g><g opacity="0.1"><rect x="206.325" y="411.011" width="46.229" height="0.489" transform="matrix(0.949,-0.316,0.316,0.949,-118.36,93.751)" fill="rgb(0,0,0)"/></g><g opacity="0.1"><rect x="205.67" y="412.247" width="56.328" height="0.489" transform="matrix(0.935,-0.355,0.355,0.935,-131.344,110.047)" fill="rgb(0,0,0)"/></g><g opacity="0.1"><rect x="205.376" y="414.53" width="65.289" height="0.489" transform="matrix(0.925,-0.379,0.379,0.925,-139.382,121.076)" fill="rgb(0,0,0)"/></g><g opacity="0.1"><rect x="205.19" y="415.512" width="75.153" height="0.489" transform="matrix(0.911,-0.412,0.412,0.911,-149.63,136.805)" fill="rgb(0,0,0)"/></g><g opacity="0.1"><rect x="205.621" y="416.514" width="82.197" height="0.489" transform="matrix(0.916,-0.401,0.401,0.916,-146.263,133.699)" fill="rgb(0,0,0)"/></g><g opacity="0.1"><rect x="206.165" y="416.817" width="98.363" height="0.489" transform="matrix(0.918,-0.397,0.397,0.918,-144.438,135.432)" fill="rgb(0,0,0)"/></g><g opacity="0.3"><path d=" M 74.415 362.111 L 160.45 344.024 L 212.863 354.045 L 142.363 376.776 L 74.415 362.111 L 74.415 362.111 Z " fill="rgb(255,255,255)"/></g><path d=" M 313.651 363.25 C 313.651 363.25 318.099 365.044 315.489 367.816 C 312.878 370.587 212.848 399.536 212.848 399.536 L 313.651 363.25 Z " fill="rgb(108,99,255)"/><path d=" M 356.859 321.45 C 356.859 321.45 345.782 334.971 354.581 355.424 L 266.102 393.797 L 257.611 395.586 L 253.7 378.477 L 256.354 356.89 L 256.354 345.075 L 356.859 321.45 Z " fill="rgb(213,214,219)"/><path d=" M 77.461 312.705 L 199.918 290.384 L 362.192 316.234 L 261.404 352.52 L 77.461 312.705 L 77.461 312.705 Z " fill="rgb(58,55,104)"/><path d=" M 77.441 312.705 C 77.441 312.705 65.983 334.404 79.181 354.446 L 260.783 393.797 C 260.783 393.797 249.516 376.497 261.384 352.515 L 77.441 312.705 Z " fill="rgb(58,55,104)"/><g opacity="0.1"><path d=" M 77.441 312.705 C 77.441 312.705 65.983 334.404 79.181 354.446 L 260.783 393.797 C 260.783 393.797 249.516 376.497 261.384 352.515 L 203.956 340.084 L 77.441 312.705 Z " fill="rgb(0,0,0)"/></g><g opacity="0.1"><path d=" M 82.867 320.228 C 82.867 320.228 76.327 336.1 82.867 346.38" fill="rgb(0,0,0)"/></g><path d=" M 260.803 393.797 L 362.192 350.535 C 362.192 350.535 367.857 351.758 364.191 355.913 C 364.191 355.913 262.758 397.952 262.758 397.952 L 79.201 354.446 L 260.803 393.797 Z " fill="rgb(58,55,104)"/><g opacity="0.1"><path d=" M 260.803 393.797 L 362.192 350.535 C 362.192 350.535 367.857 351.758 364.191 355.913 C 364.191 355.913 262.758 397.952 262.758 397.952 L 79.201 354.446 L 260.803 393.797 Z " fill="rgb(0,0,0)"/></g><g opacity="0.1"><path d=" M 252.493 356.89 C 252.493 356.89 242.716 368.622 252.493 386.22" fill="rgb(0,0,0)"/></g><g opacity="0.1"><rect x="254.865" y="364" width="46.229" height="0.489" transform="matrix(0.949,-0.316,0.316,0.949,-100.987,106.696)" fill="rgb(0,0,0)"/></g><g opacity="0.1"><rect x="254.216" y="365.233" width="56.328" height="0.489" transform="matrix(0.935,-0.355,0.355,0.935,-111.464,124.232)" fill="rgb(0,0,0)"/></g><g opacity="0.1"><rect x="253.915" y="367.51" width="65.289" height="0.489" transform="matrix(0.925,-0.379,0.379,0.925,-117.953,135.959)" fill="rgb(0,0,0)"/></g><g opacity="0.1"><rect x="253.735" y="368.493" width="75.153" height="0.489" transform="matrix(0.911,-0.412,0.412,0.911,-125.969,152.62)" fill="rgb(0,0,0)"/></g><g opacity="0.1"><rect x="254.159" y="369.489" width="82.197" height="0.489" transform="matrix(0.916,-0.401,0.401,0.916,-123.366,149.203)" fill="rgb(0,0,0)"/></g><g opacity="0.1"><rect x="254.706" y="369.792" width="98.363" height="0.489" transform="matrix(0.918,-0.397,0.397,0.918,-121.813,150.825)" fill="rgb(0,0,0)"/></g><g opacity="0.45"><path d=" M 122.956 315.095 L 208.991 297.008 L 261.404 307.029 L 190.904 329.76 L 122.956 315.095 L 122.956 315.095 Z " fill="rgb(255,255,255)"/></g><path d=" M 362.192 316.234 C 362.192 316.234 366.635 318.028 364.03 320.795 C 364.03 320.795 261.404 352.515 261.404 352.515 L 362.192 316.234 Z " fill="rgb(58,55,104)"/><path d=" M 361.454 267.663 C 361.454 267.663 350.372 291.944 359.171 312.392 L 270.692 340.011 L 262.22 341.805 L 258.31 324.696 L 260.925 303.104 L 260.925 291.289 L 361.454 267.663 Z " fill="rgb(213,214,219)"/><path d=" M 82.07 258.923 L 204.533 236.598 L 366.806 262.448 L 266.014 298.734 L 82.07 258.923 L 82.07 258.923 Z " fill="rgb(108,99,255)"/><path d=" M 82.07 258.918 C 82.07 258.918 70.597 280.618 83.796 300.66 L 265.398 340.011 C 265.398 340.011 254.125 322.711 265.994 298.734 L 82.07 258.918 Z " fill="rgb(108,99,255)"/><g opacity="0.1"><path d=" M 82.07 258.918 C 82.07 258.918 70.597 280.618 83.796 300.66 L 265.398 340.011 C 265.398 340.011 254.125 322.711 265.994 298.734 L 82.07 258.918 Z " fill="rgb(0,0,0)"/></g><g opacity="0.1"><path d=" M 87.482 266.441 C 87.482 266.441 80.936 282.319 87.482 292.594" fill="rgb(0,0,0)"/></g><path d=" M 265.417 340.011 L 366.802 307.503 C 366.802 307.503 372.472 308.726 368.806 312.881 C 368.806 312.881 267.373 344.166 267.373 344.166 L 83.815 300.66 L 265.417 340.011 Z " fill="rgb(108,99,255)"/><g opacity="0.1"><path d=" M 265.417 340.011 L 366.802 307.503 C 366.802 307.503 372.472 308.726 368.806 312.881 C 368.806 312.881 267.373 344.166 267.373 344.166 L 83.815 300.66 L 265.417 340.011 Z " fill="rgb(0,0,0)"/></g><g opacity="0.1"><path d=" M 257.107 303.104 C 257.107 303.104 247.33 314.836 257.107 332.434" fill="rgb(0,0,0)"/></g><g opacity="0.1"><rect x="259.481" y="310.212" width="46.229" height="0.489" transform="matrix(0.949,-0.316,0.316,0.949,-83.727,105.392)" fill="rgb(0,0,0)"/></g><g opacity="0.1"><rect x="258.829" y="311.449" width="56.328" height="0.489" transform="matrix(0.935,-0.355,0.355,0.935,-92.046,122.36)" fill="rgb(0,0,0)"/></g><g opacity="0.1"><rect x="258.523" y="313.727" width="65.289" height="0.489" transform="matrix(0.925,-0.379,0.379,0.925,-97.236,133.696)" fill="rgb(0,0,0)"/></g><g opacity="0.1"><rect x="258.349" y="314.706" width="75.153" height="0.489" transform="matrix(0.911,-0.412,0.412,0.911,-103.417,149.751)" fill="rgb(0,0,0)"/></g><g opacity="0.1"><rect x="258.776" y="315.707" width="82.197" height="0.489" transform="matrix(0.916,-0.401,0.401,0.916,-101.44,146.55)" fill="rgb(0,0,0)"/></g><g opacity="0.1"><rect x="259.322" y="316.013" width="98.363" height="0.489" transform="matrix(0.918,-0.397,0.397,0.918,-100.111,148.247)" fill="rgb(0,0,0)"/></g><g opacity="0.3"><path d=" M 127.566 261.309 L 213.601 243.222 L 266.014 253.243 L 195.514 275.974 L 127.566 261.309 L 127.566 261.309 Z " fill="rgb(255,255,255)"/></g><path d=" M 366.802 262.448 C 366.802 262.448 371.25 264.242 368.64 267.013 C 368.64 267.013 266.014 298.734 266.014 298.734 L 366.802 262.448 Z " fill="rgb(108,99,255)"/><path d=" M 151.744 114.057 C 151.744 114.057 133.168 112.938 135.339 125.97 C 135.339 125.97 134.904 128.272 136.991 129.319 C 136.991 129.319 137.025 128.341 138.897 128.678 C 139.565 128.793 140.245 128.826 140.921 128.776 C 141.832 128.714 142.699 128.357 143.39 127.759 L 143.39 127.759 C 143.39 127.759 148.615 125.599 150.649 117.054 C 150.649 117.054 152.154 115.191 152.115 114.712 L 148.967 116.052 C 148.967 116.052 150.038 118.315 149.197 120.197 C 149.197 120.197 149.094 116.135 148.488 116.228 C 148.366 116.228 146.86 117.015 146.86 117.015 C 146.86 117.015 148.703 120.959 147.31 123.824 C 147.31 123.824 147.838 118.965 146.284 117.298 L 144.074 118.589 C 144.074 118.589 146.23 122.661 144.768 125.985 C 144.768 125.985 145.145 120.886 143.61 118.901 L 141.605 120.466 C 141.605 120.466 143.634 124.479 142.397 127.236 C 142.397 127.236 142.236 121.302 141.175 120.852 C 141.175 120.852 139.42 122.397 139.156 123.032 C 139.156 123.032 140.545 125.965 139.679 127.485 C 139.679 127.485 139.156 123.531 138.702 123.511 C 138.702 123.511 136.957 126.131 136.776 127.911 C 136.86 126.252 137.378 124.644 138.276 123.247 C 137.271 123.438 136.343 123.918 135.607 124.631 C 135.607 124.631 135.876 122.778 138.712 122.617 C 138.712 122.617 140.154 120.627 140.54 120.51 C 140.54 120.51 137.719 120.27 136.013 121.028 C 136.013 121.028 137.519 119.283 141.053 120.05 L 143.008 118.437 C 143.008 118.437 139.303 117.948 137.729 118.491 C 137.729 118.491 139.543 116.946 143.541 118.07 L 145.697 116.785 C 145.697 116.785 142.534 116.105 140.652 116.35 C 140.652 116.35 142.637 115.279 146.328 116.438 L 147.863 115.749 C 147.863 115.749 145.55 115.294 144.871 115.221 C 144.871 115.221 144.157 114.961 144.157 114.961 C 145.625 114.72 147.13 114.89 148.508 115.45 C 148.508 115.45 151.807 114.262 151.744 114.057 Z " fill="rgb(108,99,255)"/><path d=" M 413.075 167.624 C 413.075 167.624 394.499 166.504 396.669 179.536 C 396.669 179.536 396.234 181.839 398.322 182.885 C 398.322 182.885 398.356 181.907 400.228 182.245 C 400.896 182.357 401.576 182.39 402.252 182.342 C 403.155 182.276 404.012 181.919 404.696 181.326 L 404.696 181.326 C 404.696 181.326 409.926 179.165 411.955 170.62 C 411.955 170.62 413.461 168.758 413.422 168.279 L 410.283 169.618 C 410.283 169.618 411.354 171.881 410.513 173.763 C 410.513 173.763 410.41 169.701 409.809 169.794 C 409.687 169.794 408.176 170.581 408.176 170.581 C 408.176 170.581 410.019 174.526 408.631 177.39 C 408.631 177.39 409.159 172.531 407.6 170.865 L 405.39 172.155 C 405.39 172.155 407.546 176.227 406.084 179.551 C 406.084 179.551 406.461 174.453 404.926 172.468 L 402.926 174.032 C 402.926 174.032 404.95 178.046 403.713 180.803 C 403.713 180.803 403.552 174.868 402.491 174.418 C 402.491 174.418 400.741 175.963 400.472 176.599 C 400.472 176.599 401.861 179.532 401 181.052 C 401 181.052 400.472 177.097 400.023 177.078 C 400.023 177.078 398.278 179.698 398.097 181.477 C 398.181 179.818 398.7 178.209 399.602 176.814 C 398.595 177.004 397.666 177.485 396.928 178.197 C 396.928 178.197 397.202 176.344 400.032 176.183 C 400.032 176.183 401.475 174.194 401.861 174.071 C 401.861 174.071 399.045 173.837 397.334 174.594 C 397.334 174.594 398.84 172.849 402.374 173.617 L 404.329 172.004 C 404.329 172.004 400.619 171.515 399.05 172.057 C 399.05 172.057 400.859 170.513 404.862 171.637 L 407.013 170.351 C 407.013 170.351 403.85 169.672 401.968 169.916 C 401.968 169.916 403.953 168.846 407.644 170.004 L 409.183 169.315 C 409.183 169.315 406.866 168.86 406.187 168.787 C 406.187 168.787 405.473 168.528 405.473 168.528 C 406.941 168.284 408.447 168.453 409.824 169.017 C 409.824 169.017 413.133 167.829 413.075 167.624 Z " fill="rgb(166,164,208)"/><path d=" M 183.029 194.568 C 183.029 194.568 174.934 177.786 164.63 186.058 C 164.63 186.058 162.405 186.801 162.513 189.132 C 162.513 189.132 163.368 188.687 163.979 190.486 C 164.208 191.122 164.51 191.729 164.879 192.295 C 165.379 193.062 166.115 193.645 166.976 193.957 L 166.976 193.957 C 166.976 193.957 171.41 197.467 179.862 195.072 C 179.862 195.072 182.223 195.477 182.609 195.194 L 179.91 193.106 C 179.91 193.106 178.444 195.145 176.401 195.326 C 176.401 195.326 179.901 193.258 179.524 192.779 C 179.446 192.681 178.058 191.738 178.058 191.738 C 178.058 191.738 175.511 195.272 172.334 195.453 C 172.334 195.453 176.831 193.546 177.525 191.371 L 175.325 190.071 C 175.325 190.071 172.817 193.942 169.205 194.285 C 169.205 194.285 173.839 192.129 174.822 189.822 L 172.485 188.844 C 172.485 188.844 169.968 192.569 166.956 192.838 C 166.956 192.838 172.06 189.802 171.933 188.653 C 171.933 188.653 169.728 187.881 169.044 187.954 C 169.044 187.954 167.176 190.589 165.417 190.589 C 165.417 190.589 168.609 188.199 168.413 187.812 C 168.413 187.812 165.275 187.568 163.623 188.301 C 165.111 187.561 166.768 187.224 168.428 187.324 C 167.769 186.538 166.896 185.963 165.915 185.666 C 165.915 185.666 167.665 185.002 169.185 187.392 C 169.185 187.392 171.63 187.68 171.918 187.959 C 171.918 187.959 170.75 185.388 169.259 184.268 C 169.259 184.268 171.517 184.723 172.549 188.179 L 174.919 189.118 C 174.919 189.118 173.556 185.637 172.299 184.537 C 172.299 184.537 174.528 185.363 175.501 189.426 L 177.672 190.677 C 177.672 190.677 176.728 187.583 175.594 186.062 C 175.594 186.062 177.496 187.275 178.283 191.058 L 179.637 192.065 C 179.637 192.065 178.903 189.822 178.659 189.196 C 178.659 189.196 178.537 188.443 178.537 188.443 C 179.467 189.604 180.056 191 180.238 192.476 C 180.238 192.476 182.853 194.715 183.029 194.568 Z " fill="rgb(108,99,255)"/><path d=" M 370.634 143.915 C 370.634 143.915 362.544 127.133 352.234 135.405 C 352.234 135.405 350.015 136.148 350.118 138.479 C 350.118 138.479 350.978 138.039 351.584 139.833 C 351.812 140.472 352.116 141.081 352.488 141.647 C 352.987 142.412 353.721 142.994 354.581 143.304 L 354.581 143.304 C 354.581 143.304 359.019 146.814 367.466 144.424 C 367.466 144.424 369.827 144.824 370.218 144.541 L 367.535 142.449 C 367.535 142.449 366.068 144.492 364.03 144.673 C 364.03 144.673 367.525 142.6 367.149 142.121 C 367.07 142.023 365.682 141.08 365.682 141.08 C 365.682 141.08 363.14 144.614 359.958 144.795 C 359.958 144.795 364.46 142.889 365.154 140.718 L 362.92 139.428 C 362.92 139.428 360.417 143.294 356.8 143.641 C 356.8 143.641 361.434 141.481 362.422 139.173 L 360.08 138.196 C 360.08 138.196 357.563 141.926 354.556 142.19 C 354.556 142.19 359.655 139.154 359.528 138.01 C 359.528 138.01 357.328 137.233 356.644 137.311 C 356.644 137.311 354.776 139.941 353.011 139.941 C 353.011 139.941 356.208 137.551 356.013 137.164 C 356.013 137.164 352.875 136.92 351.217 137.653 C 352.706 136.913 354.363 136.576 356.023 136.675 C 355.367 135.89 354.495 135.314 353.515 135.018 C 353.515 135.018 355.265 134.354 356.785 136.744 C 356.785 136.744 359.229 137.037 359.518 137.316 C 359.518 137.316 358.35 134.74 356.854 133.62 C 356.854 133.62 359.112 134.08 360.144 137.555 L 362.519 138.494 C 362.519 138.494 361.155 135.009 359.899 133.909 C 359.899 133.909 362.128 134.735 363.096 138.797 L 365.271 140.048 C 365.271 140.048 364.323 136.959 363.189 135.434 C 363.189 135.434 365.095 136.646 365.878 140.43 L 367.232 141.437 C 367.232 141.437 366.503 139.193 366.254 138.567 C 366.254 138.567 366.132 137.819 366.132 137.819 C 367.059 138.981 367.646 140.377 367.828 141.852 C 367.828 141.852 370.482 144.072 370.634 143.915 Z " fill="rgb(178,176,215)"/><path d=" M 396.488 226.924 C 396.488 226.924 388.398 210.137 378.074 218.409 C 378.074 218.409 375.855 219.152 375.957 221.483 C 375.957 221.483 376.818 221.043 377.424 222.837 C 377.65 223.476 377.952 224.085 378.323 224.651 C 378.822 225.416 379.556 225.998 380.416 226.308 L 380.416 226.308 C 380.416 226.308 384.854 229.823 393.306 227.428 C 393.306 227.428 395.662 227.833 396.053 227.545 L 393.355 225.458 C 393.355 225.458 391.888 227.501 389.845 227.682 C 389.845 227.682 393.34 225.609 392.964 225.13 C 392.886 225.032 391.497 224.089 391.497 224.089 C 391.497 224.089 388.955 227.623 385.773 227.809 C 385.773 227.809 390.275 225.897 390.969 223.727 L 388.765 222.427 C 388.765 222.427 386.262 226.298 382.645 226.641 C 382.645 226.641 387.279 224.48 388.266 222.173 L 385.925 221.195 C 385.925 221.195 383.407 224.92 380.401 225.189 C 380.401 225.189 385.504 222.153 385.377 221.004 C 385.377 221.004 383.173 220.227 382.488 220.305 C 382.488 220.305 380.621 222.935 378.856 222.935 C 378.856 222.935 382.053 220.545 381.858 220.159 C 381.858 220.159 378.719 219.914 377.062 220.647 C 378.553 219.908 380.211 219.571 381.872 219.67 C 381.215 218.883 380.342 218.307 379.36 218.013 C 379.36 218.013 381.11 217.343 382.63 219.738 C 382.63 219.738 385.074 220.027 385.363 220.305 C 385.363 220.305 384.194 217.734 382.703 216.61 C 382.703 216.61 384.962 217.069 385.993 220.545 L 388.364 221.483 C 388.364 221.483 387 217.998 385.744 216.903 C 385.744 216.903 387.973 217.724 388.941 221.791 L 391.116 223.038 C 391.116 223.038 390.168 219.948 389.034 218.423 C 389.034 218.423 390.94 219.636 391.727 223.424 L 393.081 224.402 C 393.081 224.402 392.348 222.158 392.104 221.532 C 392.104 221.532 391.981 220.784 391.981 220.784 C 392.911 221.945 393.498 223.341 393.678 224.817 C 393.678 224.817 396.337 227.071 396.488 226.924 Z " fill="rgb(108,99,255)"/><g opacity="0.1"><ellipse vector-effect="non-scaling-stroke" cx="98.72003327576837" cy="444.0641091265082" rx="11.238294454121885" ry="1.2563034687730692" fill="rgb(108,99,255)"/></g><g opacity="0.1"><ellipse vector-effect="non-scaling-stroke" cx="25.047855929934997" cy="422.7118384977111" rx="11.238294454121887" ry="1.2563034687730692" fill="rgb(108,99,255)"/></g><g opacity="0.1"><ellipse vector-effect="non-scaling-stroke" cx="154.87728716395983" cy="458.24518446857326" rx="11.23829445412187" ry="1.2563034687730692" fill="rgb(108,99,255)"/></g><g opacity="0.1"><ellipse vector-effect="non-scaling-stroke" cx="442.65388329886866" cy="427.35576182586067" rx="11.238294454121899" ry="1.2563034687730692" fill="rgb(108,99,255)"/></g><g opacity="0.1"><ellipse vector-effect="non-scaling-stroke" cx="349.1350441506278" cy="421.2600014151213" rx="11.238294454121899" ry="1.2563034687730692" fill="rgb(108,99,255)"/></g><g opacity="0.1"><ellipse vector-effect="non-scaling-stroke" cx="288.63694403570287" cy="449.9643359234308" rx="13.291397399198502" ry="2.2828549413114274" fill="rgb(108,99,255)"/></g><path d=" M 294.567 427.018 C 294.567 427.018 276.059 436.58 285.621 447.843 C 285.621 447.843 286.52 450.287 289.121 450.116 C 289.121 450.116 288.603 449.168 290.587 448.41 C 291.294 448.137 291.965 447.781 292.587 447.349 C 293.427 446.768 294.055 445.929 294.376 444.959 L 294.376 444.959 C 294.376 444.959 298.159 439.894 295.226 430.523 C 295.226 430.523 295.608 427.874 295.275 427.444 L 293.027 430.528 C 293.027 430.528 295.349 432.088 295.617 434.38 C 295.617 434.38 293.173 430.533 292.684 430.958 C 292.577 431.046 291.57 432.645 291.57 432.645 C 291.57 432.645 295.598 435.378 295.896 438.926 C 295.896 438.926 293.628 433.955 291.179 433.246 L 289.776 435.749 C 289.776 435.749 294.175 438.428 294.664 442.456 C 294.664 442.456 292.108 437.348 289.497 436.316 L 288.466 438.961 C 288.466 438.961 292.709 441.659 293.1 445.012 C 293.1 445.012 289.551 439.406 288.275 439.582 C 288.275 439.582 287.474 442.065 287.581 442.832 C 287.581 442.832 290.578 444.836 290.631 446.806 C 290.631 446.806 287.865 443.311 287.439 443.541 C 287.439 443.541 287.263 447.056 288.114 448.884 C 288.114 448.884 286.647 446.274 286.887 443.541 C 286.03 444.299 285.413 445.292 285.112 446.396 C 285.112 446.396 284.316 444.465 286.941 442.686 C 286.941 442.686 287.19 439.953 287.493 439.616 C 287.493 439.616 284.653 441.004 283.446 442.705 C 283.446 442.705 283.89 440.168 287.742 438.907 L 288.72 436.228 C 288.72 436.228 284.868 437.861 283.68 439.298 C 283.68 439.298 284.536 436.78 289.023 435.573 L 290.353 433.129 C 290.353 433.129 286.931 434.283 285.259 435.573 C 285.259 435.573 286.555 433.408 290.763 432.41 L 291.844 430.87 C 291.844 430.87 289.36 431.755 288.666 432.073 C 288.666 432.073 287.835 432.234 287.835 432.234 C 289.104 431.161 290.646 430.461 292.289 430.211 C 292.289 430.211 294.738 427.185 294.567 427.018 Z " fill="rgb(108,99,255)"/><linearGradient id="_lgradient_0" x1="0.49998309565032995" y1="1.0000594965442948" x2="0.49998309565033" y2="-0.000015015781328564515" gradientTransform="matrix(167.042,0,0,245.337,183.698,62)" gradientUnits="userSpaceOnUse"><stop offset="0%" stop-opacity="0.25" style="stop-color:rgb(128,128,128)"/><stop offset="54%" stop-opacity="0.12" style="stop-color:rgb(128,128,128)"/><stop offset="100%" stop-opacity="0.1" style="stop-color:rgb(128,128,128)"/></linearGradient><path d=" M 349.497 246.429 C 346.3 237.742 328.702 236.926 321.066 239.14 C 315.64 240.719 304.201 242.498 298.091 243.393 L 297.695 243.016 C 298.487 242.782 298.507 242.205 298.409 241.35 C 298.352 240.222 298.368 239.092 298.458 237.967 C 302.202 239.13 305.536 236.378 305.536 236.378 L 305.536 236.378 C 309.935 234.423 308.752 226.054 309.593 223.766 C 310.224 222.055 310.903 211.975 311.206 206.95 L 311.27 206.95 L 311.304 205.264 C 311.348 204.535 311.368 204.11 311.368 204.11 C 311.368 204.11 311.798 191.821 312.639 189.333 C 313.421 187.045 314.056 175.518 314.154 173.69 C 314.154 173.534 314.154 173.45 314.154 173.45 L 314.091 172.385 C 314.135 171.608 314.154 170.742 314.149 169.833 C 314.149 165.654 313.714 160.389 313.66 159.538 C 313.66 159.416 313.66 159.269 313.66 159.093 C 313.695 157.309 313.47 148.373 305.868 144.995 C 303.067 143.744 299.699 142.253 296.439 140.801 C 295.598 133.542 293.677 126.322 293.843 119.009 C 293.843 117.909 293.941 116.809 294.048 115.714 C 294.048 116.032 294.014 116.355 294.009 116.692 C 294.009 117.401 294.009 118.114 294.009 118.823 C 294.298 109.677 297.754 100.482 297.431 91.532 C 297.402 92.407 297.338 93.287 297.255 94.166 C 297.424 91.139 297.107 88.104 296.317 85.177 C 296.023 84.145 295.627 83.08 294.782 82.39 C 293.982 81.835 293.065 81.472 292.103 81.33 C 289.79 80.738 287.44 80.3 285.068 80.02 C 284.708 78.917 284.173 77.879 283.485 76.945 C 278.528 70.14 271.186 63.746 262.504 62.28 C 258.148 61.547 253.138 62.158 250.175 65.272 C 249.866 65.545 249.575 65.839 249.305 66.151 C 247.712 68.053 247.027 70.551 245.395 72.448 C 245.287 72.575 245.165 72.692 245.048 72.814 C 241.851 75.674 236.869 76.27 233.316 78.837 C 232.689 79.297 232.102 79.809 231.561 80.367 C 230.129 81.786 228.845 83.347 227.728 85.025 C 226.13 87.274 224.487 89.615 223.979 92.299 C 222.957 97.676 226.619 102.775 227.298 108.186 C 228.813 120.295 215.414 131.039 217.952 142.986 C 218.629 145.921 220.123 148.604 222.263 150.725 C 217.037 155.456 212.589 160.047 212.589 160.047 L 212.589 160.32 L 211.763 160.32 L 211.846 161.298 L 211.763 161.298 L 212.218 166.602 L 211.763 174.325 C 211.763 174.325 211.763 174.409 211.763 174.565 L 211.763 174.604 L 211.763 174.814 C 211.763 174.814 211.763 174.897 211.763 175.054 L 211.792 175.054 C 211.944 177.884 212.545 188.062 213.259 190.208 C 214.1 192.696 214.525 204.985 214.525 204.985 C 214.525 204.985 215.454 222.353 216.304 224.651 C 217.155 226.948 215.947 235.293 220.361 237.263 L 220.361 237.263 C 221.653 238.253 223.182 238.887 224.795 239.101 C 224.57 240.929 224.712 242.254 225.44 242.669 C 225.752 242.853 226.106 242.954 226.467 242.963 C 226.168 243.407 225.901 243.873 225.67 244.356 C 223.918 244.173 222.197 243.767 220.547 243.148 C 215.806 241.193 200.07 236.794 195.499 239.888 C 190.929 242.982 179.93 245.788 185.009 258.244 C 190.088 270.699 192.454 271.012 192.454 271.012 C 194.017 272.147 195.389 273.525 196.516 275.094 C 198.041 277.386 212.252 282.632 215.806 282.632 C 217.316 282.608 218.827 282.683 220.327 282.856 C 220.327 282.856 216.47 286.239 216.984 288.204 C 216.984 288.204 215.81 305.9 215.81 305.9 C 215.81 305.9 219.721 309.84 221.393 304.673 L 221.452 304.751 C 221.764 305.177 223.456 307.098 226.638 304.673 C 227.941 303.685 229.324 302.809 230.774 302.053 L 246.182 299.873 C 247.788 299.772 249.399 299.761 251.007 299.839 C 253.451 300.039 255.851 298.592 257.361 297.473 C 260.553 298.685 264.141 300.01 265.848 300.494 C 269.308 301.471 285.215 305.739 288.935 304.404 C 289.708 304.097 290.396 303.607 290.939 302.977 L 294.488 303.089 L 292.826 303.422 C 292.826 303.422 296.062 303.475 300.462 303.534 L 300.276 303.642 L 305.795 303.593 C 313.871 303.666 322.943 303.691 324.136 303.422 C 326.003 303.006 335.707 303.299 338.566 303.422 L 339.363 303.422 C 339.363 303.422 350.025 301.295 345.625 290.477 C 342.242 282.167 331.845 279.752 327.23 279.088 C 328.531 278.828 329.65 278.628 330.393 278.511 C 333.615 278.022 339.872 275.089 340.38 274.087 C 340.888 273.085 346.134 270.176 347.488 268.519 C 348.842 266.862 352.708 255.115 349.497 246.429 Z  M 261.189 270.738 L 260.666 270.909 L 260.314 271.027 L 259.639 271.691 C 259.102 271.33 258.525 270.948 257.924 270.557 C 258.984 270.621 260.074 270.684 261.189 270.738 Z  M 307.78 284.514" fill="url(#_lgradient_0)"/><path d=" M 292.357 219.196 C 292.357 219.196 299.836 238.749 304.089 236.794 C 304.089 236.794 307.188 226.528 308 224.25 C 308 224.25 309.711 204.697 309.711 204.697 C 309.711 204.697 310.121 192.476 310.933 190.002 C 311.685 187.729 312.297 176.266 312.399 174.462 C 312.399 174.306 312.399 174.223 312.399 174.223 L 311.593 160.047 L 307.027 158.908 L 296.439 162.818 L 294.972 171.192 L 294.4 174.462 L 294.156 175.856 L 292.357 219.196 Z " fill="rgb(190,111,114)"/><g opacity="0.1"><path d=" M 294.821 215.92 C 294.821 215.92 301.958 221.762 304.109 222.275 C 304.109 222.275 307.579 227.344 307.579 227.344" fill="rgb(0,0,0)"/></g><path d=" M 233.868 220.051 C 233.868 220.051 226.389 239.604 222.136 237.649 C 222.136 237.649 219.037 227.384 218.225 225.106 C 218.225 225.106 216.514 205.552 216.514 205.552 C 216.514 205.552 216.104 193.331 215.292 190.858 C 214.539 188.585 213.928 177.122 213.826 175.318 C 213.826 175.161 213.826 175.078 213.826 175.078 L 214.637 160.902 L 219.203 159.763 L 229.791 163.674 L 231.258 172.048 L 231.83 175.318 L 232.074 176.711 L 233.868 220.051 Z " fill="rgb(190,111,114)"/><rect x="265.877" y="115.411" width="16.694" height="26.021" transform="matrix(1,0,0,1,0,0)" fill="rgb(62,55,58)"/><g opacity="0.1"><rect x="265.877" y="115.411" width="16.694" height="26.021" transform="matrix(1,0,0,1,0,0)" fill="rgb(0,0,0)"/></g><path d=" M 233.594 235.961 C 233.594 235.961 227.89 242.233 230.006 243.372 C 230.006 243.372 245.815 265.858 245.815 265.858 C 245.815 265.858 290.788 271.396 299.269 263.086 C 299.269 263.086 307.579 239.93 307.579 239.93 C 307.579 239.93 300.765 241.397 300.022 240.6 C 300.022 240.6 295.197 235.961 295.197 235.961 C 295.197 235.961 237.505 232.461 233.594 235.961 Z " fill="rgb(152,0,0)"/><g opacity="0.02"><path d=" M 240.121 235.241 C 240.121 235.241 235.712 242.169 237.348 243.427 C 237.348 243.427 249.565 268.266 249.565 268.266 C 249.565 268.266 284.318 274.384 290.872 265.205 C 290.872 265.205 297.294 239.626 297.294 239.626 C 297.294 239.626 292.028 241.246 291.454 240.365 C 291.454 240.365 287.726 235.241 287.726 235.241 C 287.726 235.241 243.143 231.375 240.121 235.241 Z " fill="rgb(152,0,0)"/></g><path d=" M 311.896 160.252 L 297.231 171.984 L 292.797 172.307 L 291.169 172.424 L 263.829 174.428 L 235.476 172.355 L 231.258 172.048 L 225.88 171.656 L 214.637 160.902 C 214.637 160.902 222.595 152.377 229.566 146.623 C 232.313 144.35 234.909 142.512 236.801 141.789 L 237.124 141.676 C 238.314 141.212 239.376 140.472 240.223 139.516 C 245.727 133.84 250.816 119.835 250.816 119.835 C 250.816 119.835 275.096 107.292 272.163 123.746 C 269.23 140.2 283.079 136.133 283.079 136.133 L 287.645 138.215 L 289.448 139.041 L 294.048 141.148 L 304.426 145.91 C 312.57 149.659 311.896 160.252 311.896 160.252 Z " fill="rgb(190,111,114)"/><g opacity="0.1"><circle vector-effect="non-scaling-stroke" cx="262.68963348221047" cy="111.3978835996023" r="21.836216322993664" fill="rgb(0,0,0)"/></g><g opacity="0.1"><path d=" M 311.93 175.807 L 213.826 175.807 C 213.826 175.65 213.826 175.567 213.826 175.567 L 214.637 161.391 C 214.637 161.391 222.595 152.866 229.566 147.112 L 291.159 144.668 L 294.024 141.647 L 304.402 146.408 C 312.551 150.153 311.896 160.746 311.896 160.746 C 311.896 160.746 313.01 173.02 311.93 175.807 Z " fill="rgb(0,0,0)"/></g><path d=" M 311.93 175.318 L 213.826 175.318 C 213.826 175.161 213.826 175.078 213.826 175.078 L 214.637 160.902 C 214.637 160.902 222.595 152.377 229.566 146.623 L 291.159 144.179 L 294.024 141.158 L 304.402 145.919 C 312.551 149.664 311.896 160.257 311.896 160.257 C 311.896 160.257 313.01 172.531 311.93 175.318 Z " fill="rgb(231,199,202)"/><g opacity="0.1"><path d=" M 246.964 135.566 C 246.964 135.566 262.44 155.285 283.054 135.16 C 283.054 135.16 285.337 180.05 285.337 180.05 L 240.853 185.329 L 246.964 135.566 Z " fill="rgb(0,0,0)"/></g><path d=" M 246.964 136.544 C 246.964 136.544 262.44 156.263 283.054 136.138 C 283.054 136.138 285.337 181.027 285.337 181.027 L 240.853 186.307 L 246.964 136.544 Z " fill="rgb(231,199,202)"/><g opacity="0.1"><path d=" M 289.424 140.004 L 291.062 164.979 L 292.816 173.289 L 294.156 179.644 C 294.156 179.644 297.578 228.527 296.6 230.972 C 296.6 230.972 297.089 235.371 297.294 236.671 C 297.294 236.671 297.089 241.237 297.25 242.704 C 297.25 242.704 297.25 244.82 293.506 244.297 C 293.506 244.297 284.541 242.865 284.541 242.865 C 284.541 242.865 271.342 243.843 266.781 242.215 C 266.781 242.215 253.583 240.582 253.583 240.582 C 253.583 240.582 240.545 240.91 236.312 240.421 C 236.312 240.421 229.791 245.637 227.024 244.004 C 227.024 244.004 230.28 226.572 232.235 222.006 C 232.235 222.006 229.63 205.875 229.63 205.875 L 235.496 173.333 L 236.801 165.957 L 236.801 142.766 L 237.124 142.654 C 238.314 142.19 239.376 141.449 240.223 140.493 L 241.689 163.83 L 287.64 165.463 L 287.64 139.198" fill="rgb(0,0,0)"/></g><path d=" M 289.424 139.027 L 291.062 164.001 L 292.816 172.311 L 294.156 178.666 C 294.156 178.666 297.578 227.55 296.6 229.994 C 296.6 229.994 297.089 234.393 297.294 235.694 C 297.294 235.694 297.089 240.259 297.25 241.726 C 297.25 241.726 297.25 243.843 293.506 243.32 C 293.506 243.32 284.541 241.887 284.541 241.887 C 284.541 241.887 271.342 242.865 266.781 241.237 C 266.781 241.237 253.583 239.604 253.583 239.604 C 253.583 239.604 240.545 239.932 236.312 239.443 C 236.312 239.443 229.791 244.659 227.024 243.026 C 227.024 243.026 230.28 225.594 232.235 221.029 C 232.235 221.029 229.63 204.897 229.63 204.897 L 235.496 172.355 L 236.801 164.979 L 236.801 141.789 L 237.124 141.676 C 238.314 141.212 239.376 140.472 240.223 139.516 L 241.689 162.853 L 287.64 164.485 L 287.64 138.22" fill="rgb(231,199,202)"/><g opacity="0.1"><path d=" M 294.708 86.907 C 294.43 85.886 294.043 84.825 293.242 84.14 C 292.476 83.591 291.592 83.229 290.661 83.085 C 288.431 82.498 286.164 82.064 283.876 81.784 C 283.549 80.699 283.054 79.671 282.409 78.739 C 277.619 71.973 270.531 65.594 262.191 64.152 C 257.826 63.394 252.766 64.074 249.97 67.515 C 248.435 69.407 247.775 71.915 246.226 73.772 C 243.239 77.38 237.847 77.825 234.083 80.616 C 232.074 82.083 230.617 84.209 229.195 86.272 C 227.655 88.506 226.071 90.833 225.582 93.502 C 224.605 98.835 228.129 103.919 228.779 109.301 C 230.246 121.341 217.341 132.022 219.78 143.9 C 221.202 150.827 227.601 155.706 234.22 158.179 C 236.552 159.054 239.216 159.924 240.306 162.163 C 240.795 163.141 240.878 164.27 241.337 165.258 C 242.882 168.552 247.961 168.679 250.689 166.279 C 253.416 163.879 254.277 159.998 254.599 156.376 C 255.91 140.557 249.574 124.929 250.312 109.071 C 250.532 104.276 251.882 98.835 256.178 96.664 C 261.961 93.731 268.917 98.62 275.282 97.686 C 278.294 105.014 278.933 113.102 277.11 120.813 C 276.098 125.031 274.348 129.123 274.221 133.474 C 274.031 140.097 277.604 146.149 280.693 152.005 C 281.356 153.1 281.8 154.314 281.999 155.579 C 282.047 156.862 281.808 158.139 281.3 159.318 C 279.554 164.016 276.543 168.376 276.201 173.377 C 276.101 173.961 276.232 174.561 276.568 175.049 C 276.912 175.375 277.357 175.575 277.829 175.616 C 283.108 176.52 287.674 171.842 290.25 167.145 C 293.122 161.956 294.796 156.19 295.148 150.27 C 295.681 140.317 292.113 130.526 292.333 120.564 C 292.587 109.237 297.705 97.833 294.708 86.907 Z " fill="rgb(0,0,0)"/></g><path d=" M 295.197 86.418 C 294.918 85.397 294.532 84.336 293.731 83.652 C 292.965 83.102 292.081 82.74 291.15 82.596 C 288.92 82.009 286.653 81.575 284.365 81.295 C 284.038 80.21 283.543 79.182 282.898 78.25 C 278.107 71.485 271.019 65.105 262.68 63.663 C 258.315 62.906 253.255 63.585 250.459 67.026 C 248.924 68.918 248.264 71.426 246.715 73.283 C 243.728 76.891 238.336 77.336 234.572 80.127 C 232.563 81.594 231.106 83.72 229.684 85.783 C 228.144 88.017 226.56 90.344 226.071 93.013 C 225.093 98.346 228.618 103.43 229.268 108.812 C 230.735 120.852 217.829 131.533 220.269 143.412 C 221.691 150.338 228.09 155.217 234.709 157.69 C 237.041 158.565 239.705 159.436 240.795 161.674 C 241.284 162.652 241.367 163.781 241.826 164.769 C 243.371 168.064 248.45 168.191 251.178 165.79 C 253.905 163.39 254.766 159.509 255.088 155.887 C 256.398 140.068 250.063 124.44 250.801 108.582 C 251.021 103.787 252.37 98.346 256.667 96.176 C 262.45 93.243 269.406 98.131 275.771 97.197 C 278.783 104.526 279.422 112.613 277.599 120.324 C 276.587 124.543 274.837 128.634 274.71 132.985 C 274.519 139.608 278.093 145.66 281.182 151.516 C 281.845 152.612 282.288 153.825 282.487 155.09 C 282.536 156.373 282.297 157.651 281.788 158.829 C 280.043 163.527 277.032 167.888 276.69 172.888 C 276.59 173.472 276.721 174.072 277.056 174.56 C 277.401 174.886 277.845 175.086 278.318 175.127 C 283.597 176.032 288.163 171.353 290.739 166.656 C 293.611 161.467 295.285 155.701 295.637 149.781 C 296.17 139.828 292.601 130.037 292.821 120.075 C 293.076 108.748 298.194 97.344 295.197 86.418 Z " fill="rgb(62,55,58)"/><path d=" M 284.399 302.86 L 303.791 303.48 L 301.009 289.099 L 286.154 290.512 L 284.399 302.86 L 284.399 302.86 Z " fill="rgb(195,199,217)"/><path d=" M 332.588 261.964 C 331.283 263.592 326.233 266.525 325.744 267.503 C 325.256 268.48 319.228 271.413 316.129 271.902 C 313.03 272.391 303.258 274.513 301.464 275.652 C 300.178 276.473 289.859 279.073 283.079 280.515 C 281.242 280.95 279.384 281.284 277.511 281.518 C 274.578 281.679 242.481 270.763 242.481 270.763 L 248.67 264.408 L 249.012 264.291 C 250.762 263.7 258.847 260.967 263.335 259.667 C 268.389 258.2 274.255 252.173 274.255 252.173 C 274.255 252.173 282.888 249.24 284.032 248.912 C 285.176 248.585 281.099 237.508 281.099 237.508 C 281.099 237.508 299.836 234.907 307.169 232.703 C 314.501 230.498 331.449 231.314 334.543 239.952 C 337.638 248.59 333.913 260.336 332.588 261.964 Z " fill="rgb(152,0,0)"/><path d=" M 259.102 296.309 C 259.102 296.309 255.357 300.22 251.608 299.897 C 251.608 299.897 234.748 300.875 234.748 300.875 C 232.372 301.823 230.147 303.112 228.144 304.702 C 225.079 307.117 223.451 305.191 223.148 304.781 L 223.094 304.702 C 221.461 309.84 217.717 305.924 217.717 305.924 C 217.717 305.924 219.345 290.282 218.846 288.326 C 218.347 286.371 222.068 283.013 222.068 283.013 L 226.467 281.893 L 237.612 279.039 L 253.583 284.577 L 259.102 296.309 Z " fill="rgb(231,199,202)"/><g opacity="0.1"><path d=" M 226.447 281.893 L 223.148 304.781 L 223.094 304.702 C 221.461 309.84 217.717 305.924 217.717 305.924 C 217.717 305.924 219.345 290.282 218.846 288.326 C 218.347 286.371 222.068 283.013 222.068 283.013 L 226.447 281.893 Z " fill="rgb(0,0,0)"/></g><g opacity="0.1"><path d=" M 249.511 216.791 C 249.511 216.791 258.143 219.724 265.642 216.791" fill="rgb(0,0,0)"/></g><g opacity="0.1"><path d=" M 278.982 222.334 C 278.982 222.334 282.566 224.123 285.337 222.334" fill="rgb(0,0,0)"/></g><g opacity="0.1"><path d=" M 278.982 226.577 C 278.982 226.577 285.01 227.384 286.154 225.756" fill="rgb(0,0,0)"/></g><g opacity="0.1"><path d=" M 277.027 235.694 C 277.027 235.694 288.349 234.227 291.159 232.272" fill="rgb(0,0,0)"/></g><g opacity="0.1"><path d=" M 242.481 232.272 C 242.481 232.272 248.836 235.855 253.563 235.694" fill="rgb(0,0,0)"/></g><g opacity="0.1"><path d=" M 294.972 287.324 C 293.136 287.759 291.277 288.093 289.404 288.326 C 286.471 288.488 254.375 277.572 254.375 277.572 L 260.563 271.217 L 260.905 271.1 C 261.883 271.789 262.685 272.381 263.257 272.83 C 265.95 274.952 268.551 272.18 269.528 272.18 C 270.506 272.18 278.978 279.185 278.978 279.185 C 278.978 279.185 286.799 280.979 288.104 282.607 C 289.409 284.235 293.97 283.912 294.782 285.051 C 295.026 285.403 295.055 286.268 294.972 287.324 Z " fill="rgb(0,0,0)"/></g><path d=" M 234.748 244.982 C 234.748 244.982 226.839 245.436 222.278 243.515 C 222.278 243.515 202.563 237.16 198.164 240.274 C 198.164 240.274 183.171 246.14 188.059 258.527 C 188.059 258.527 195.231 271.237 195.231 271.237 C 196.743 272.371 198.063 273.741 199.141 275.294 C 200.608 277.577 214.295 282.788 217.717 282.788 C 221.139 282.788 227.166 282.788 235.638 288.654 C 244.109 294.52 251.769 295.175 251.769 295.175 C 251.769 295.175 262.523 299.575 265.872 300.552 C 269.22 301.53 284.521 305.763 288.109 304.463 C 291.697 303.163 293.975 295.009 293.975 295.009 C 293.975 295.009 295.603 287.676 294.786 286.537 C 293.97 285.398 289.409 285.721 288.109 284.093 C 286.809 282.465 278.982 280.671 278.982 280.671 C 278.982 280.671 270.531 273.661 269.553 273.661 C 268.575 273.661 265.975 276.428 263.281 274.312 C 257.916 270.338 252.279 266.744 246.411 263.557 C 240.223 260.297 234.748 244.982 234.748 244.982 Z " fill="rgb(152,0,0)"/><g opacity="0.1"><path d=" M 218.846 249.709 C 221.701 249.125 224.664 249.908 226.858 251.825 C 230.769 255.086 243.928 261.631 243.928 261.631" fill="rgb(0,0,0)"/></g><g opacity="0.1"><path d=" M 316.623 249.503 C 316.623 249.503 299.186 252.143 295.93 255.726" fill="rgb(0,0,0)"/></g><path d=" M 336.665 303.48 L 335.897 303.48 C 333.14 303.383 323.799 303.089 322 303.48 C 319.883 303.969 291.853 303.48 291.853 303.48 L 297.333 302.341 C 297.333 302.341 295.3 295.214 296.59 294.623 C 296.59 294.623 289.258 289.793 294.786 286.532 C 300.315 283.272 306.274 284.646 306.274 284.646 L 320.152 279.943 L 322.816 279.039 C 322.816 279.039 338.459 279.855 342.692 290.609 C 346.926 301.364 336.665 303.48 336.665 303.48 Z " fill="rgb(231,199,202)"/><g opacity="0.1"><path d=" M 336.665 303.48 L 335.897 303.48 C 340.448 299.726 350.743 288.297 320.152 279.967 L 322.816 279.063 C 322.816 279.063 338.459 279.879 342.692 290.634 C 346.926 301.388 336.665 303.48 336.665 303.48 Z " fill="rgb(0,0,0)"/></g><circle vector-effect="non-scaling-stroke" cx="307.90678167735064" cy="289.95429139677935" r="0.855459560448594" fill="rgb(75,75,91)"/><circle vector-effect="non-scaling-stroke" cx="302.93533954605795" cy="291.3670217566059" r="0.855459560448594" fill="rgb(75,75,91)"/><g style="opacity:0.1;"><g opacity="0.1"><path d=" M 278.714 110.591 C 278.903 105.215 277.947 99.859 275.908 94.88 C 269.553 95.829 262.592 90.926 256.804 93.859 C 252.522 96.029 251.178 101.47 250.938 106.265 C 250.879 107.531 250.87 108.797 250.894 110.063 C 250.894 109.614 250.894 109.159 250.938 108.709 C 251.163 103.914 252.507 98.473 256.804 96.303 C 262.592 93.37 269.543 98.258 275.908 97.324 C 277.635 101.542 278.585 106.036 278.714 110.591 L 278.714 110.591 Z " fill="rgb(0,0,0)"/></g><g opacity="0.1"><path d=" M 229.468 109.697 C 229.552 108.632 229.531 107.561 229.405 106.5 C 228.887 102.198 226.535 98.087 226.11 93.893 C 225.563 98.952 228.784 103.811 229.405 108.944 C 229.468 109.208 229.468 109.443 229.468 109.697 Z " fill="rgb(0,0,0)"/></g><g opacity="0.1"><path d=" M 255.225 153.565 C 254.922 157.192 254.067 161.068 251.314 163.473 C 248.562 165.878 243.493 165.746 241.963 162.452 C 241.474 161.474 241.401 160.335 240.927 159.357 C 239.842 157.119 237.172 156.248 234.841 155.373 C 228.217 152.895 221.828 148.041 220.405 141.095 C 220.278 140.465 220.192 139.828 220.146 139.188 C 220.026 140.643 220.113 142.108 220.405 143.539 C 221.828 150.465 228.227 155.339 234.841 157.818 C 237.172 158.693 239.842 159.563 240.927 161.802 C 241.416 162.779 241.499 163.908 241.963 164.896 C 243.503 168.191 248.582 168.318 251.314 165.918 C 254.047 163.517 254.898 159.636 255.225 156.009 C 255.374 154.1 255.425 152.184 255.377 150.27 C 255.377 151.38 255.313 152.475 255.225 153.565 Z " fill="rgb(0,0,0)"/></g><g opacity="0.1"><path d=" M 292.983 117.758 C 292.983 118.466 292.983 119.17 292.983 119.874 C 293.256 110.782 296.59 101.641 296.263 92.739 C 296.009 100.971 293.168 109.389 292.983 117.758 Z " fill="rgb(0,0,0)"/></g><g opacity="0.1"><path d=" M 282.492 154.537 C 282.613 153.957 282.65 153.363 282.605 152.773 C 282.408 151.508 281.964 150.294 281.3 149.199 C 278.474 143.822 275.253 138.318 274.871 132.349 C 274.871 132.604 274.837 132.838 274.832 133.112 C 274.637 139.731 278.21 145.787 281.3 151.644 C 281.825 152.551 282.226 153.524 282.492 154.537 L 282.492 154.537 Z " fill="rgb(0,0,0)"/></g><g opacity="0.1"><path d=" M 295.793 147.464 C 295.429 153.386 293.743 159.152 290.861 164.339 C 288.28 169.036 283.719 173.714 278.435 172.81 C 277.962 172.769 277.516 172.567 277.174 172.238 C 277.075 172.126 276.997 171.997 276.944 171.857 C 276.885 172.238 276.836 172.624 276.807 173.015 C 276.706 173.598 276.838 174.196 277.174 174.682 C 277.516 175.012 277.962 175.213 278.435 175.254 C 283.719 176.159 288.28 171.48 290.861 166.783 C 293.743 161.596 295.429 155.831 295.793 149.908 C 295.852 148.764 295.857 147.625 295.823 146.486 C 295.813 146.814 295.813 147.137 295.793 147.464 Z " fill="rgb(0,0,0)"/></g></g><g opacity="0.1"><mask id="_mask_cSrF54Mk5n4NvSC5JxhkrEfCzv82LhL6" x="-200%" y="-200%" width="400%" height="400%"><rect x="-200%" y="-200%" width="400%" height="400%" style="fill:white;"/><path d=" M 296.59 294.623 C 296.59 294.623 308.963 299.814 317.121 288.326" fill="black" stroke="none"/></mask><path d=" M 296.59 294.623 C 296.59 294.623 308.963 299.814 317.121 288.326" fill="none"/><path d=" M 296.59 294.623 C 296.59 294.623 308.963 299.814 317.121 288.326" fill="none" mask="url(#_mask_cSrF54Mk5n4NvSC5JxhkrEfCzv82LhL6)" vector-effect="non-scaling-stroke" stroke-width="0.978" stroke="rgb(0,0,0)" stroke-linejoin="miter" stroke-linecap="butt" stroke-miterlimit="10"/></g><g opacity="0.1"><mask id="_mask_Wo3erKYwMHmtYvKyeazXbCOoKv2iLbmF" x="-200%" y="-200%" width="400%" height="400%"><rect x="-200%" y="-200%" width="400%" height="400%" style="fill:white;"/><path d=" M 299.025 303.695 C 299.025 303.695 309.129 297.125 322 303.48" fill="black" stroke="none"/></mask><path d=" M 299.025 303.695 C 299.025 303.695 309.129 297.125 322 303.48" fill="none"/><path d=" M 299.025 303.695 C 299.025 303.695 309.129 297.125 322 303.48" fill="none" mask="url(#_mask_Wo3erKYwMHmtYvKyeazXbCOoKv2iLbmF)" vector-effect="non-scaling-stroke" stroke-width="0.978" stroke="rgb(0,0,0)" stroke-linejoin="miter" stroke-linecap="butt" stroke-miterlimit="10"/></g><g opacity="0.1"><mask id="_mask_2mDvPcv2zoC0WtZYZRHE7SHgBx41NLI6" x="-200%" y="-200%" width="400%" height="400%"><rect x="-200%" y="-200%" width="400%" height="400%" style="fill:white;"/><path d=" M 231.39 302.204 C 231.39 302.204 235.633 292.633 246.964 299.931" fill="black" stroke="none"/></mask><path d=" M 231.39 302.204 C 231.39 302.204 235.633 292.633 246.964 299.931" fill="none"/><path d=" M 231.39 302.204 C 231.39 302.204 235.633 292.633 246.964 299.931" fill="none" mask="url(#_mask_2mDvPcv2zoC0WtZYZRHE7SHgBx41NLI6)" vector-effect="non-scaling-stroke" stroke-width="0.978" stroke="rgb(0,0,0)" stroke-linejoin="miter" stroke-linecap="butt" stroke-miterlimit="10"/></g><g opacity="0.1"><path d=" M 217.634 160.658 L 226.286 152.836 C 226.286 152.836 259.835 150.637 261.223 162.041 C 261.223 162.041 273.116 148.52 298.13 151.531 L 308.713 159.959 L 279.462 172.795 L 251.036 182.655 L 230.099 173.284 L 217.634 160.658 Z " fill="rgb(0,0,0)"/></g><path d=" M 217.634 161.147 L 226.286 153.325 C 226.286 153.325 259.835 151.125 261.223 162.53 C 261.223 162.53 273.116 149.009 298.13 152.02 L 308.713 160.447 L 279.462 173.284 L 251.036 183.144 L 230.099 173.773 L 217.634 161.147 Z " fill="rgb(213,214,219)"/><g opacity="0.1"><path d=" M 213.806 162.124 L 217.634 207.913 L 258.207 209.952 L 256.447 164.358 L 256.413 163.591 L 213.806 162.124 L 213.806 162.124 Z " fill="rgb(0,0,0)"/></g><path d=" M 213.806 161.147 L 217.634 206.936 L 258.207 208.974 L 256.447 163.38 L 256.413 162.613 L 213.806 161.147 L 213.806 161.147 Z " fill="rgb(108,99,255)"/><g opacity="0.1"><path d=" M 310.571 161.147 L 268.717 167.423 L 268.717 213.418 L 309.618 207.508 L 310.571 161.147 L 310.571 161.147 Z " fill="rgb(0,0,0)"/></g><path d=" M 310.571 160.169 L 268.717 166.445 L 268.717 212.44 L 309.618 206.53 L 310.571 160.169 L 310.571 160.169 Z " fill="rgb(108,99,255)"/><g opacity="0.3"><path d=" M 300.701 171.392 L 278.093 173.905 L 278.587 181.609 L 300.687 179.194 L 300.701 171.392 L 300.701 171.392 Z " fill="rgb(255,255,255)"/></g><path d=" M 219.834 231.456 L 222.136 237.649 C 222.136 237.649 225.558 240.582 229.302 239.116 C 229.302 239.116 236.312 236.921 237.94 235.493 C 237.94 235.493 241.851 226.895 241.851 226.895 C 241.851 226.895 244.133 219.073 246.411 217.118 C 246.411 217.118 254.722 188.223 246.411 190.858 C 246.411 190.858 231.746 217.934 231.746 217.934 C 231.746 217.934 230.28 219.724 228.163 219.89 C 228.163 219.89 221.808 219.562 220.992 221.356 C 220.176 223.15 217.389 227.872 219.834 231.456 Z " fill="rgb(190,111,114)"/><g opacity="0.1"><path d=" M 268.717 167.418 C 264.372 168.397 259.819 167.263 256.442 164.358 L 258.207 209.947 C 258.207 209.947 262.362 214.444 268.717 213.418 L 268.717 167.418 Z " fill="rgb(0,0,0)"/></g><path d=" M 268.717 166.441 C 264.372 167.42 259.819 166.285 256.442 163.38 L 258.207 208.969 C 258.207 208.969 262.362 213.466 268.717 212.44 L 268.717 166.441 Z " fill="rgb(108,99,255)"/><g opacity="0.1"><path d=" M 268.717 166.441 C 264.372 167.42 259.819 166.285 256.442 163.38 L 258.207 208.969 C 258.207 208.969 262.362 213.466 268.717 212.44 L 268.717 166.441 Z " fill="rgb(0,0,0)"/></g><g opacity="0.1"><path d=" M 269.695 161.303 C 269.695 161.303 286.721 156.097 291.159 156.83" fill="rgb(0,0,0)"/></g><g opacity="0.1"><path d=" M 250.65 159.03 C 250.65 159.03 234.147 155.119 231.39 156.229" fill="rgb(0,0,0)"/></g><g opacity="0.1"><path d=" M 280.429 161.953 C 280.429 161.953 291.814 157.778 295.93 159.763" fill="rgb(0,0,0)"/></g><g opacity="0.1"><path d=" M 274.695 266.676 C 276.46 265.351 278.338 264.185 280.307 263.191 C 283.24 261.778 288.617 258.112 288.617 258.112" fill="rgb(0,0,0)"/></g><g opacity="0.1"><path d=" M 231.39 216.791 C 231.39 216.791 224.248 222.632 222.102 223.145 C 222.102 223.145 218.631 228.215 218.631 228.215" fill="rgb(0,0,0)"/></g><path d=" M 306.372 230.585 L 304.094 236.794 C 304.094 236.794 300.672 239.727 296.923 238.26 C 296.923 238.26 289.918 236.065 288.285 234.638 C 288.285 234.638 284.374 226.039 284.374 226.039 C 284.374 226.039 282.096 218.218 279.813 216.263 C 279.813 216.263 271.503 187.368 279.813 190.002 C 279.813 190.002 294.479 217.079 294.479 217.079 C 294.479 217.079 295.945 218.868 298.062 219.034 C 298.062 219.034 304.417 218.707 305.233 220.501 C 306.049 222.295 308.816 227.017 306.372 230.585 Z " fill="rgb(190,111,114)"/><g opacity="0.1"><path d=" M 302.378 219.166 C 302.378 219.166 307.046 222.168 307.027 225.756" fill="rgb(0,0,0)"/></g><circle vector-effect="non-scaling-stroke" cx="262.7678469277372" cy="110.3273370639552" r="21.836216322993664" fill="rgb(190,111,114)"/><path d=" M 249.056 104.466 C 251.706 104.051 254.027 102.511 256.56 101.626 C 262.225 99.637 268.492 101 274.226 102.794 C 276.426 103.484 278.66 104.261 280.967 104.261 C 283.274 104.261 285.723 103.317 286.902 101.328 C 287.987 99.5 287.777 97.124 286.862 95.203 C 285.948 93.282 284.418 91.737 282.874 90.28 C 277.79 85.48 271.484 80.992 264.508 81.481 C 261.702 81.682 259.018 82.684 256.437 83.793 C 253.188 85.194 250.024 86.787 246.964 88.564 C 244.613 89.928 240.257 91.752 238.903 94.245 C 235.823 99.861 244.265 105.219 249.056 104.466 Z " fill="rgb(62,55,58)"/><g opacity="0.1"><path d=" M 286.902 99.275 C 285.723 101.264 283.274 102.208 280.967 102.208 C 278.66 102.208 276.426 101.46 274.221 100.771 C 268.487 98.977 262.225 97.608 256.555 99.602 C 254.027 100.487 251.701 102.046 249.051 102.438 C 245.189 103.044 238.971 99.681 238.297 95.403 C 237.539 100.345 244.749 104.579 249.051 103.904 C 251.701 103.489 254.027 101.949 256.555 101.069 C 262.225 99.074 268.487 100.443 274.221 102.237 C 276.426 102.926 278.655 103.704 280.967 103.674 C 283.279 103.645 285.723 102.736 286.902 100.741 C 287.512 99.656 287.753 98.402 287.586 97.168 C 287.51 97.911 287.276 98.629 286.902 99.275 L 286.902 99.275 Z " fill="rgb(0,0,0)"/></g><path d=" M 464.109 364.198 C 464.109 364.198 467.008 367.987 462.769 373.711 C 462.769 373.711 455.041 384.265 456.449 387.834 C 456.449 387.834 462.843 377.206 468.044 377.055 C 473.245 376.903 469.823 370.587 464.109 364.198 Z " fill="rgb(108,99,255)"/><g opacity="0.1"><path d=" M 464.109 364.198 C 464.361 364.564 464.56 364.964 464.7 365.386 C 469.774 371.35 472.483 376.918 467.599 377.055 C 463.053 377.187 457.602 385.316 456.297 387.364 C 456.339 387.53 456.39 387.693 456.449 387.853 C 456.449 387.853 462.843 377.226 468.044 377.074 C 473.245 376.923 469.823 370.587 464.109 364.198 Z " fill="rgb(0,0,0)"/></g><path d=" M 469.486 369.028 C 469.486 370.363 469.334 371.443 469.154 371.443 C 468.973 371.443 468.816 370.363 468.816 369.028 C 468.816 367.694 469.002 368.324 469.188 368.324 C 469.374 368.324 469.486 367.694 469.486 369.028 Z " fill="rgb(255,208,55)"/><path d=" M 471.339 370.622 C 470.17 371.257 469.149 371.643 469.061 371.482 C 468.973 371.321 469.848 370.671 471.016 370.016 C 472.184 369.36 471.725 369.84 471.813 370.016 C 471.901 370.192 472.512 369.981 471.339 370.622 Z " fill="rgb(255,208,55)"/><path d=" M 448.789 364.198 C 448.789 364.198 445.89 367.987 450.128 373.711 C 450.128 373.711 457.857 384.265 456.444 387.834 C 456.444 387.834 450.055 377.206 444.849 377.055 C 439.643 376.903 443.089 370.587 448.789 364.198 Z " fill="rgb(108,99,255)"/><g opacity="0.1"><path d=" M 448.789 364.198 C 448.536 364.564 448.337 364.964 448.197 365.386 C 443.123 371.35 440.415 376.918 445.298 377.055 C 449.84 377.187 455.295 385.316 456.6 387.364 C 456.559 387.531 456.507 387.694 456.444 387.853 C 456.444 387.853 450.055 377.226 444.849 377.074 C 439.643 376.923 443.089 370.587 448.789 364.198 Z " fill="rgb(0,0,0)"/></g><path d=" M 443.402 369.028 C 443.402 370.363 443.548 371.443 443.734 371.443 C 443.92 371.443 444.072 370.363 444.072 369.028 C 444.072 367.694 443.881 368.324 443.7 368.324 C 443.519 368.324 443.402 367.694 443.402 369.028 Z " fill="rgb(255,208,55)"/><path d=" M 441.554 370.622 C 442.722 371.257 443.744 371.643 443.832 371.482 C 443.92 371.321 443.045 370.671 441.877 370.016 C 440.708 369.36 441.168 369.84 441.08 370.016 C 440.992 370.192 440.381 369.981 441.554 370.622 Z " fill="rgb(255,208,55)"/><g opacity="0.37"><ellipse vector-effect="non-scaling-stroke" cx="456.44877975364545" cy="412.1823533936753" rx="30.307710141607515" ry="4.648811668494943" fill="rgb(108,99,255)"/></g><path d=" M 472.047 382.725 L 471.901 383.908 L 471.696 385.58 L 471.612 386.279 L 471.407 387.951 L 471.319 388.65 L 471.119 390.317 L 468.797 409.332 C 468.591 411.029 465.82 412.353 462.471 412.353 L 450.421 412.353 C 447.073 412.353 444.306 411.029 444.096 409.332 L 441.774 390.317 L 441.569 388.65 L 441.486 387.951 L 441.28 386.279 L 441.192 385.58 L 440.992 383.908 L 440.845 382.725 C 440.733 381.748 442.229 380.956 444.125 380.956 L 468.772 380.956 C 470.664 380.956 472.165 381.762 472.047 382.725 Z " fill="rgb(101,97,125)"/><path d=" M 471.901 383.908 L 471.7 385.58 L 441.197 385.58 L 440.992 383.908 L 471.901 383.908 L 471.901 383.908 Z " fill="rgb(157,156,181)"/><path d=" M 471.612 386.279 L 471.412 387.951 L 441.486 387.951 L 441.28 386.279 L 471.612 386.279 L 471.612 386.279 Z " fill="rgb(157,156,181)"/><path d=" M 471.324 388.65 L 471.119 390.322 L 441.774 390.322 L 441.574 388.65 L 471.324 388.65 L 471.324 388.65 Z " fill="rgb(157,156,181)"/></g></g></svg>